<svg xmlns="http://www.w3.org/2000/svg" fill="none" viewBox="0 0 451 356"><g filter="url(#a)"><path fill="url(#b)" fill-rule="evenodd" d="M244.66 1.45A164 164 0 0 0 222.89 0C136.72 0 66.86 67.16 66.86 150s69.86 150 156.03 150c64.81 0 120.4-37.99 143.97-92.07q-2.28.07-4.58.07c-78.7 0-142.5-59.1-142.5-132 0-27.66 9.18-53.34 24.88-74.55" clip-rule="evenodd"/></g><path stroke="url(#c)" stroke-linecap="round" stroke-width="27.713" d="M16.86 218.15q105-25.71 210 0 105 25.7 210 0"/><path stroke="url(#d)" stroke-linecap="round" stroke-width="27.713" d="M13.86 274.85q105-25.7 210 0 105 25.71 210 0"/><path stroke="url(#e)" stroke-linecap="round" stroke-width="27.713" d="M13.86 328.85q105-25.7 210 0t210 0"/><defs><linearGradient id="b" x1="84.544" x2="297.796" y1="0" y2="349.608" gradientUnits="userSpaceOnUse"><stop stop-color="#9b87eb"/><stop offset=".659" stop-color="#3010ac"/></linearGradient><linearGradient id="c" x1="-9.64" x2="420.36" y1="205" y2="231" gradientUnits="userSpaceOnUse"><stop stop-color="#f2f2f2"/><stop offset="1" stop-color="#cfcfcf"/></linearGradient><linearGradient id="d" x1="-12.64" x2="417.36" y1="261.709" y2="287.709" gradientUnits="userSpaceOnUse"><stop stop-color="#f2f2f2"/><stop offset="1" stop-color="#cfcfcf"/></linearGradient><linearGradient id="e" x1="-12.64" x2="417.36" y1="315.709" y2="341.709" gradientUnits="userSpaceOnUse"><stop stop-color="#f2f2f2"/><stop offset="1" stop-color="#cfcfcf"/></linearGradient><filter id="a" width="329" height="315" x="41.86" y="0" color-interpolation-filters="sRGB" filterUnits="userSpaceOnUse"><feFlood flood-opacity="0" result="BackgroundImageFix"/><feColorMatrix in="SourceAlpha" result="hardAlpha" values="0 0 0 0 0 0 0 0 0 0 0 0 0 0 0 0 0 0 127 0"/><feOffset dy="4"/><feGaussianBlur stdDeviation="2"/><feComposite in2="hardAlpha" operator="out"/><feColorMatrix values="0 0 0 0 0 0 0 0 0 0 0 0 0 0 0 0 0 0 0.25 0"/><feBlend in2="BackgroundImageFix" result="effect1_dropShadow_43_1083"/><feBlend in="SourceGraphic" in2="effect1_dropShadow_43_1083" result="shape"/><feColorMatrix in="SourceAlpha" result="hardAlpha" values="0 0 0 0 0 0 0 0 0 0 0 0 0 0 0 0 0 0 127 0"/><feOffset dx="-25" dy="15"/><feGaussianBlur stdDeviation="12.5"/><feComposite in2="hardAlpha" k2="-1" k3="1" operator="arithmetic"/><feColorMatrix values="0 0 0 0 0.607843 0 0 0 0 0.529412 0 0 0 0 0.921569 0 0 0 1 0"/><feBlend in2="shape" result="effect2_innerShadow_43_1083"/></filter></defs></svg>