<svg xmlns="http://www.w3.org/2000/svg" fill="none" viewBox="0 0 420 446"><g filter="url(#a)" opacity=".5" style="mix-blend-mode:color-burn"><path fill="url(#b)" fill-opacity=".3" fill-rule="evenodd" d="M253.16 414.38a26.8 26.8 0 0 1-23.74 14.1c-14.73 0-26.68-11.61-26.68-25.94q0-3.07.69-6.24c-2.15 4.99-3.36 9.75-3.36 14.39 0 14.32 11.95 25.93 26.68 25.93 13.45 0 24.57-9.66 26.41-22.24" clip-rule="evenodd"/></g><path fill="url(#c)" d="M253.17 410.56c0 14.32-11.95 25.93-26.68 25.93s-26.68-11.6-26.68-25.93 11.47-29.74 26.67-49.56c12.81 19.28 26.68 35.24 26.68 49.56" opacity=".5"/><ellipse cx="233.288" cy="389.243" fill="url(#d)" opacity=".3" rx="27.346" ry="27.157" style="mix-blend-mode:screen"/><ellipse cx="217.814" cy="418.843" fill="url(#e)" opacity=".3" rx="27.346" ry="27.157" style="mix-blend-mode:screen"/><g filter="url(#f)" opacity=".5" style="mix-blend-mode:color-burn"><path fill="url(#g)" fill-opacity=".3" fill-rule="evenodd" d="M150.05 352.57A19 19 0 0 1 133.09 363a19.14 19.14 0 0 1-19.06-19.22q0-2.28.49-4.62c-1.53 3.7-2.4 7.22-2.4 10.66a19.14 19.14 0 0 0 19.06 19.22c9.6 0 17.55-7.17 18.87-16.48" clip-rule="evenodd"/></g><path fill="url(#h)" d="M150.05 349.73c0 10.62-8.53 19.22-19.06 19.22s-19.05-8.6-19.05-19.22 8.19-22.04 19.05-36.73c9.15 14.3 19.06 26.12 19.06 36.73" opacity=".5"/><ellipse cx="135.851" cy="333.933" fill="url(#i)" opacity=".3" rx="19.533" ry="20.128" style="mix-blend-mode:screen"/><ellipse cx="124.798" cy="355.872" fill="url(#j)" opacity=".3" rx="19.533" ry="20.128" style="mix-blend-mode:screen"/><g filter="url(#k)"><path stroke="url(#l)" stroke-linecap="round" stroke-width="15" d="M7.5-7.5h79.89" transform="rotate(114.996 55.569 250.51)skewX(.104)"/></g><g filter="url(#m)"><path stroke="url(#n)" stroke-linecap="round" stroke-width="15" d="M7.5-7.5h79.89" transform="rotate(114.996 4.041 214.868)skewX(.104)"/></g><g filter="url(#o)"><circle cx="326.5" cy="87.5" r="87.5" fill="url(#p)"/></g><mask id="s" fill="#fff"><path fill-rule="evenodd" d="M319.76 300h-169.4C67.32 300 0 232.84 0 150S67.32 0 150.36 0a150.4 150.4 0 0 1 143 103.5 101 101 0 0 1 26.4-3.5C375.12 100 420 144.77 420 200s-44.88 100-100.24 100" clip-rule="evenodd"/></mask><g filter="url(#q)"><path fill="url(#r)" fill-rule="evenodd" d="M319.76 300h-169.4C67.32 300 0 232.84 0 150S67.32 0 150.36 0a150.4 150.4 0 0 1 143 103.5 101 101 0 0 1 26.4-3.5C375.12 100 420 144.77 420 200s-44.88 100-100.24 100" clip-rule="evenodd"/></g><path fill="#000" fill-opacity=".05" d="M150.36 300v-1zm169.4 0v1zm-26.4-196.5-.96.32.3.9.92-.25zm-143 197.5h169.4v-2h-169.4zM-1 150c0 83.4 67.77 151 151.36 151v-2C67.86 299 1 232.29 1 150zM150.36-1C66.76-1-1 66.6-1 150h2C1 67.71 67.87 1 150.36 1zM294.3 103.2A151.4 151.4 0 0 0 150.36-1v2A149.4 149.4 0 0 1 292.4 103.82zm-.68 1.27a100 100 0 0 1 26.14-3.47v-2c-9.23 0-18.17 1.23-26.67 3.54zm26.14-3.47c54.81 0 99.24 44.33 99.24 99h2c0-55.78-45.33-101-101.24-101zM419 200c0 54.67-44.43 99-99.24 99v2C375.67 301 421 255.78 421 200z" mask="url(#s)"/><defs><radialGradient id="b" cx="0" cy="0" r="1" gradientTransform="matrix(35.2169 -27.6997 19.5778 25.789 226.752 412.454)" gradientUnits="userSpaceOnUse"><stop stop-color="#3cc7f5"/><stop offset="0" stop-color="#3cc7f5"/><stop offset="1" stop-color="#004dff"/></radialGradient><radialGradient id="c" cx="0" cy="0" r="1" gradientTransform="matrix(35.2169 -27.6997 19.5778 25.789 226.485 412.326)" gradientUnits="userSpaceOnUse"><stop stop-color="#3cc7f5"/><stop offset="0" stop-color="#3cc7f5"/><stop offset="1" stop-color="#004dff"/></radialGradient><radialGradient id="d" cx="0" cy="0" r="1" gradientTransform="matrix(21.0568 31.7732 -9.26169 6.05296 233.288 389.243)" gradientUnits="userSpaceOnUse"><stop stop-color="#fff"/><stop offset=".555" stop-color="#bddbf1" stop-opacity=".25"/><stop offset="1" stop-color="#5686f5" stop-opacity="0"/></radialGradient><radialGradient id="e" cx="0" cy="0" r="1" gradientTransform="matrix(13.3397 16.0224 -7.652 6.6007 216.347 418.843)" gradientUnits="userSpaceOnUse"><stop stop-color="#fff"/><stop offset=".674" stop-color="#bddbf1" stop-opacity=".25"/><stop offset="1" stop-color="#5686f5" stop-opacity="0"/></radialGradient><radialGradient id="g" cx="0" cy="0" r="1" gradientTransform="matrix(25.155 -20.5303 13.9841 19.1141 131.182 351.137)" gradientUnits="userSpaceOnUse"><stop stop-color="#3cc7f5"/><stop offset="0" stop-color="#3cc7f5"/><stop offset="1" stop-color="#004dff"/></radialGradient><radialGradient id="h" cx="0" cy="0" r="1" gradientTransform="matrix(25.155 -20.5304 13.9841 19.1142 130.991 351.042)" gradientUnits="userSpaceOnUse"><stop stop-color="#3cc7f5"/><stop offset="0" stop-color="#3cc7f5"/><stop offset="1" stop-color="#004dff"/></radialGradient><radialGradient id="i" cx="0" cy="0" r="1" gradientTransform="matrix(15.0406 23.5495 -6.61549 4.48631 135.851 333.933)" gradientUnits="userSpaceOnUse"><stop stop-color="#fff"/><stop offset=".555" stop-color="#bddbf1" stop-opacity=".25"/><stop offset="1" stop-color="#5686f5" stop-opacity="0"/></radialGradient><radialGradient id="j" cx="0" cy="0" r="1" gradientTransform="matrix(9.52839 11.8754 -5.46571 4.89228 123.75 355.872)" gradientUnits="userSpaceOnUse"><stop stop-color="#fff"/><stop offset=".674" stop-color="#bddbf1" stop-opacity=".25"/><stop offset="1" stop-color="#5686f5" stop-opacity="0"/></radialGradient><filter id="a" width="69.091" height="56.32" x="192.072" y="388.304" color-interpolation-filters="sRGB" filterUnits="userSpaceOnUse"><feFlood flood-opacity="0" result="BackgroundImageFix"/><feBlend in="SourceGraphic" in2="BackgroundImageFix" result="shape"/><feGaussianBlur result="effect1_foregroundBlur_2_11" stdDeviation="4"/></filter><filter id="f" width="53.922" height="45.884" x="104.125" y="331.166" color-interpolation-filters="sRGB" filterUnits="userSpaceOnUse"><feFlood flood-opacity="0" result="BackgroundImageFix"/><feBlend in="SourceGraphic" in2="BackgroundImageFix" result="shape"/><feGaussianBlur result="effect1_foregroundBlur_2_11" stdDeviation="4"/></filter><filter id="k" width="52.771" height="91.398" x="266.465" y="306.458" color-interpolation-filters="sRGB" filterUnits="userSpaceOnUse"><feFlood flood-opacity="0" result="BackgroundImageFix"/><feBlend in="SourceGraphic" in2="BackgroundImageFix" result="shape"/><feGaussianBlur result="effect1_foregroundBlur_2_11" stdDeviation="1"/></filter><filter id="m" width="52.771" height="91.398" x="160.862" y="302.458" color-interpolation-filters="sRGB" filterUnits="userSpaceOnUse"><feFlood flood-opacity="0" result="BackgroundImageFix"/><feBlend in="SourceGraphic" in2="BackgroundImageFix" result="shape"/><feGaussianBlur result="effect1_foregroundBlur_2_11" stdDeviation="1"/></filter><filter id="o" width="175" height="195" x="239" y="0" color-interpolation-filters="sRGB" filterUnits="userSpaceOnUse"><feFlood flood-opacity="0" result="BackgroundImageFix"/><feBlend in="SourceGraphic" in2="BackgroundImageFix" result="shape"/><feColorMatrix in="SourceAlpha" result="hardAlpha" values="0 0 0 0 0 0 0 0 0 0 0 0 0 0 0 0 0 0 127 0"/><feOffset dy="20"/><feGaussianBlur stdDeviation="35"/><feComposite in2="hardAlpha" k2="-1" k3="1" operator="arithmetic"/><feColorMatrix values="0 0 0 0 1 0 0 0 0 1 0 0 0 0 1 0 0 0 1 0"/><feBlend in2="shape" mode="overlay" result="effect1_innerShadow_2_11"/></filter><filter id="q" width="420" height="348.647" x="0" y="0" color-interpolation-filters="sRGB" filterUnits="userSpaceOnUse"><feFlood flood-opacity="0" result="BackgroundImageFix"/><feBlend in="SourceGraphic" in2="BackgroundImageFix" result="shape"/><feColorMatrix in="SourceAlpha" result="hardAlpha" values="0 0 0 0 0 0 0 0 0 0 0 0 0 0 0 0 0 0 127 0"/><feOffset dy="48.647"/><feGaussianBlur stdDeviation="30"/><feComposite in2="hardAlpha" k2="-1" k3="1" operator="arithmetic"/><feColorMatrix values="0 0 0 0 1 0 0 0 0 1 0 0 0 0 1 0 0 0 1 0"/><feBlend in2="shape" result="effect1_innerShadow_2_11"/></filter><linearGradient id="l" x1=".207" x2="71.759" y1=".446" y2="1.548" gradientUnits="userSpaceOnUse"><stop stop-color="#fff"/><stop offset="1" stop-color="#e8e8e8"/></linearGradient><linearGradient id="n" x1=".207" x2="71.759" y1=".446" y2="1.548" gradientUnits="userSpaceOnUse"><stop stop-color="#fff"/><stop offset="1" stop-color="#e8e8e8"/></linearGradient><linearGradient id="p" x1="326.5" x2="326.5" y1="0" y2="175" gradientUnits="userSpaceOnUse"><stop stop-color="#ffd358"/><stop offset="1" stop-color="#fa6c21"/></linearGradient><linearGradient id="r" x1="29.423" x2="419.459" y1="0" y2="300.861" gradientUnits="userSpaceOnUse"><stop stop-color="#fff"/><stop offset="1" stop-color="#c1c1c1"/></linearGradient></defs></svg>