<svg xmlns="http://www.w3.org/2000/svg" fill="none" viewBox="0 0 454 496"><g filter="url(#a)" opacity=".5" style="mix-blend-mode:color-burn"><path fill="url(#b)" fill-opacity=".3" fill-rule="evenodd" d="M255.16 464.38a26.8 26.8 0 0 1-23.74 14.1c-14.73 0-26.68-11.61-26.68-25.94q0-3.07.69-6.24c-2.15 4.99-3.36 9.75-3.36 14.39 0 14.32 11.95 25.93 26.68 25.93 13.45 0 24.57-9.66 26.41-22.24" clip-rule="evenodd"/></g><path fill="url(#c)" d="M255.17 460.56c0 14.32-11.95 25.93-26.68 25.93s-26.68-11.6-26.68-25.93 11.47-29.74 26.67-49.56c12.81 19.28 26.68 35.24 26.68 49.56" opacity=".5"/><ellipse cx="235.288" cy="439.243" fill="url(#d)" opacity=".3" rx="27.346" ry="27.157" style="mix-blend-mode:screen"/><ellipse cx="219.814" cy="468.843" fill="url(#e)" opacity=".3" rx="27.346" ry="27.157" style="mix-blend-mode:screen"/><g filter="url(#f)" opacity=".5" style="mix-blend-mode:color-burn"><path fill="url(#g)" fill-opacity=".3" fill-rule="evenodd" d="M152.05 402.57A19 19 0 0 1 135.09 413a19.14 19.14 0 0 1-19.06-19.22q0-2.28.49-4.62c-1.53 3.7-2.4 7.22-2.4 10.66a19.14 19.14 0 0 0 19.06 19.22c9.6 0 17.55-7.17 18.87-16.48" clip-rule="evenodd"/></g><path fill="url(#h)" d="M152.05 399.73c0 10.62-8.53 19.22-19.06 19.22s-19.05-8.6-19.05-19.22 8.19-22.04 19.05-36.73c9.15 14.3 19.06 26.12 19.06 36.73" opacity=".5"/><ellipse cx="137.851" cy="383.933" fill="url(#i)" opacity=".3" rx="19.533" ry="20.128" style="mix-blend-mode:screen"/><ellipse cx="126.798" cy="405.872" fill="url(#j)" opacity=".3" rx="19.533" ry="20.128" style="mix-blend-mode:screen"/><g filter="url(#k)"><path stroke="url(#l)" stroke-linecap="round" stroke-width="15" d="M7.5-7.5h79.89" transform="rotate(114.996 40.64 276.146)skewX(.104)"/></g><g filter="url(#m)"><path stroke="url(#n)" stroke-linecap="round" stroke-width="15" d="M7.5-7.5h79.89" transform="rotate(114.996 -10.887 240.506)skewX(.104)"/></g><g filter="url(#o)"><path fill="url(#p)" fill-rule="evenodd" d="M361.51 1.09A115 115 0 0 0 345.75 0c-62.4 0-113 50.37-113 112.5s50.6 112.5 113 112.5c46.93 0 87.18-28.5 104.25-69.05q-1.65.05-3.32.05c-57 0-103.2-44.32-103.2-99 0-20.75 6.66-40 18.03-55.91" clip-rule="evenodd"/></g><mask id="s" fill="#fff"><path fill-rule="evenodd" d="M319.76 354h-169.4C67.32 354 0 286.84 0 204S67.32 54 150.36 54a150.4 150.4 0 0 1 143 103.5 101 101 0 0 1 26.4-3.5C375.12 154 420 198.77 420 254s-44.88 100-100.24 100" clip-rule="evenodd"/></mask><g filter="url(#q)"><path fill="url(#r)" fill-rule="evenodd" d="M319.76 354h-169.4C67.32 354 0 286.84 0 204S67.32 54 150.36 54a150.4 150.4 0 0 1 143 103.5 101 101 0 0 1 26.4-3.5C375.12 154 420 198.77 420 254s-44.88 100-100.24 100" clip-rule="evenodd"/></g><path fill="#000" fill-opacity=".05" d="M150.36 354v-1zm169.4 0v1zm-26.4-196.5-.96.32.3.9.92-.25zm-143 197.5h169.4v-2h-169.4zM-1 204c0 83.4 67.77 151 151.36 151v-2C67.86 353 1 286.29 1 204zM150.36 53C66.76 53-1 120.6-1 204h2C1 121.71 67.87 55 150.36 55zM294.3 157.2A151.4 151.4 0 0 0 150.36 53v2A149.4 149.4 0 0 1 292.4 157.82zm-.68 1.27a100 100 0 0 1 26.14-3.47v-2c-9.23 0-18.17 1.23-26.67 3.54zm26.14-3.47c54.81 0 99.24 44.33 99.24 99h2c0-55.78-45.33-101-101.24-101zM419 254c0 54.67-44.43 99-99.24 99v2C375.67 355 421 309.78 421 254z" mask="url(#s)"/><defs><radialGradient id="b" cx="0" cy="0" r="1" gradientTransform="matrix(35.2169 -27.6997 19.5778 25.789 228.752 462.454)" gradientUnits="userSpaceOnUse"><stop stop-color="#3cc7f5"/><stop offset="0" stop-color="#3cc7f5"/><stop offset="1" stop-color="#004dff"/></radialGradient><radialGradient id="c" cx="0" cy="0" r="1" gradientTransform="matrix(35.2169 -27.6997 19.5778 25.789 228.485 462.326)" gradientUnits="userSpaceOnUse"><stop stop-color="#3cc7f5"/><stop offset="0" stop-color="#3cc7f5"/><stop offset="1" stop-color="#004dff"/></radialGradient><radialGradient id="d" cx="0" cy="0" r="1" gradientTransform="matrix(21.0568 31.7732 -9.26169 6.05296 235.288 439.243)" gradientUnits="userSpaceOnUse"><stop stop-color="#fff"/><stop offset=".555" stop-color="#bddbf1" stop-opacity=".25"/><stop offset="1" stop-color="#5686f5" stop-opacity="0"/></radialGradient><radialGradient id="e" cx="0" cy="0" r="1" gradientTransform="matrix(13.3397 16.0224 -7.652 6.6007 218.347 468.843)" gradientUnits="userSpaceOnUse"><stop stop-color="#fff"/><stop offset=".674" stop-color="#bddbf1" stop-opacity=".25"/><stop offset="1" stop-color="#5686f5" stop-opacity="0"/></radialGradient><radialGradient id="g" cx="0" cy="0" r="1" gradientTransform="matrix(25.155 -20.5303 13.9841 19.1141 133.182 401.137)" gradientUnits="userSpaceOnUse"><stop stop-color="#3cc7f5"/><stop offset="0" stop-color="#3cc7f5"/><stop offset="1" stop-color="#004dff"/></radialGradient><radialGradient id="h" cx="0" cy="0" r="1" gradientTransform="matrix(25.155 -20.5304 13.9841 19.1142 132.991 401.042)" gradientUnits="userSpaceOnUse"><stop stop-color="#3cc7f5"/><stop offset="0" stop-color="#3cc7f5"/><stop offset="1" stop-color="#004dff"/></radialGradient><radialGradient id="i" cx="0" cy="0" r="1" gradientTransform="matrix(15.0406 23.5495 -6.61549 4.48631 137.851 383.933)" gradientUnits="userSpaceOnUse"><stop stop-color="#fff"/><stop offset=".555" stop-color="#bddbf1" stop-opacity=".25"/><stop offset="1" stop-color="#5686f5" stop-opacity="0"/></radialGradient><radialGradient id="j" cx="0" cy="0" r="1" gradientTransform="matrix(9.52839 11.8754 -5.46571 4.89228 125.75 405.872)" gradientUnits="userSpaceOnUse"><stop stop-color="#fff"/><stop offset=".674" stop-color="#bddbf1" stop-opacity=".25"/><stop offset="1" stop-color="#5686f5" stop-opacity="0"/></radialGradient><filter id="a" width="69.091" height="56.32" x="194.072" y="438.304" color-interpolation-filters="sRGB" filterUnits="userSpaceOnUse"><feFlood flood-opacity="0" result="BackgroundImageFix"/><feBlend in="SourceGraphic" in2="BackgroundImageFix" result="shape"/><feGaussianBlur result="effect1_foregroundBlur_30_670" stdDeviation="4"/></filter><filter id="f" width="53.922" height="45.884" x="106.125" y="381.166" color-interpolation-filters="sRGB" filterUnits="userSpaceOnUse"><feFlood flood-opacity="0" result="BackgroundImageFix"/><feBlend in="SourceGraphic" in2="BackgroundImageFix" result="shape"/><feGaussianBlur result="effect1_foregroundBlur_30_670" stdDeviation="4"/></filter><filter id="k" width="52.771" height="91.398" x="268.465" y="356.458" color-interpolation-filters="sRGB" filterUnits="userSpaceOnUse"><feFlood flood-opacity="0" result="BackgroundImageFix"/><feBlend in="SourceGraphic" in2="BackgroundImageFix" result="shape"/><feGaussianBlur result="effect1_foregroundBlur_30_670" stdDeviation="1"/></filter><filter id="m" width="52.771" height="91.398" x="162.862" y="352.458" color-interpolation-filters="sRGB" filterUnits="userSpaceOnUse"><feFlood flood-opacity="0" result="BackgroundImageFix"/><feBlend in="SourceGraphic" in2="BackgroundImageFix" result="shape"/><feGaussianBlur result="effect1_foregroundBlur_30_670" stdDeviation="1"/></filter><filter id="o" width="246.241" height="240" x="207.758" y="0" color-interpolation-filters="sRGB" filterUnits="userSpaceOnUse"><feFlood flood-opacity="0" result="BackgroundImageFix"/><feColorMatrix in="SourceAlpha" result="hardAlpha" values="0 0 0 0 0 0 0 0 0 0 0 0 0 0 0 0 0 0 127 0"/><feOffset dy="4"/><feGaussianBlur stdDeviation="2"/><feComposite in2="hardAlpha" operator="out"/><feColorMatrix values="0 0 0 0 0 0 0 0 0 0 0 0 0 0 0 0 0 0 0.25 0"/><feBlend in2="BackgroundImageFix" result="effect1_dropShadow_30_670"/><feBlend in="SourceGraphic" in2="effect1_dropShadow_30_670" result="shape"/><feColorMatrix in="SourceAlpha" result="hardAlpha" values="0 0 0 0 0 0 0 0 0 0 0 0 0 0 0 0 0 0 127 0"/><feOffset dx="-25" dy="15"/><feGaussianBlur stdDeviation="12.5"/><feComposite in2="hardAlpha" k2="-1" k3="1" operator="arithmetic"/><feColorMatrix values="0 0 0 0 0.607843 0 0 0 0 0.529412 0 0 0 0 0.921569 0 0 0 1 0"/><feBlend in2="shape" result="effect2_innerShadow_30_670"/></filter><filter id="q" width="420" height="348.647" x="0" y="54" color-interpolation-filters="sRGB" filterUnits="userSpaceOnUse"><feFlood flood-opacity="0" result="BackgroundImageFix"/><feBlend in="SourceGraphic" in2="BackgroundImageFix" result="shape"/><feColorMatrix in="SourceAlpha" result="hardAlpha" values="0 0 0 0 0 0 0 0 0 0 0 0 0 0 0 0 0 0 127 0"/><feOffset dy="48.647"/><feGaussianBlur stdDeviation="30"/><feComposite in2="hardAlpha" k2="-1" k3="1" operator="arithmetic"/><feColorMatrix values="0 0 0 0 1 0 0 0 0 1 0 0 0 0 1 0 0 0 1 0"/><feBlend in2="shape" result="effect1_innerShadow_30_670"/></filter><linearGradient id="l" x1=".207" x2="71.759" y1=".446" y2="1.548" gradientUnits="userSpaceOnUse"><stop stop-color="#fff"/><stop offset="1" stop-color="#e8e8e8"/></linearGradient><linearGradient id="n" x1=".207" x2="71.759" y1=".446" y2="1.548" gradientUnits="userSpaceOnUse"><stop stop-color="#fff"/><stop offset="1" stop-color="#e8e8e8"/></linearGradient><linearGradient id="p" x1="245.564" x2="408.013" y1="0" y2="257.137" gradientUnits="userSpaceOnUse"><stop stop-color="#9b87eb"/><stop offset=".659" stop-color="#3010ac"/></linearGradient><linearGradient id="r" x1="29.423" x2="419.459" y1="54" y2="354.861" gradientUnits="userSpaceOnUse"><stop stop-color="#fff"/><stop offset="1" stop-color="#c1c1c1"/></linearGradient></defs></svg>