<svg xmlns="http://www.w3.org/2000/svg" viewBox="0 0 420 469" width="32" height="24">

  <!-- Rain drops -->
  <path fill="#3cc7f5" d="M237.15 431.48c0 15.16-11.95 27.46-26.68 27.46s-26.68-12.3-26.68-27.46 11.47-31.49 26.68-52.48c12.8 20.42 26.68 37.31 26.68 52.48"/>

  <ellipse cx="217.269" cy="408.904" fill="#ffffff" rx="27.346" ry="28.754"/>
  <ellipse cx="201.795" cy="440.246" fill="#ffffff" rx="27.346" ry="28.754"/>

  <path fill="#3cc7f5" d="M159.26 358.43c0 12.66-10.67 22.92-23.82 22.92s-23.82-10.26-23.82-22.92 10.24-26.3 23.82-43.82c11.43 17.05 23.82 31.15 23.82 43.82"/>

  <ellipse cx="141.512" cy="339.579" fill="#ffffff" rx="24.416" ry="24.008"/>
  <ellipse cx="127.696" cy="365.748" fill="#ffffff" rx="24.416" ry="24.008"/>

  <path fill="#3cc7f5" d="M309.62 358.43c0 12.66-10.67 22.92-23.82 22.92s-23.83-10.26-23.83-22.92 10.25-26.3 23.83-43.82c11.43 17.05 23.82 31.15 23.82 43.82"/>

  <ellipse cx="291.87" cy="339.579" fill="#ffffff" rx="24.416" ry="24.008"/>
  <ellipse cx="278.054" cy="365.748" fill="#ffffff" rx="24.416" ry="24.008"/>

  <!-- Sun -->
  <ellipse cx="318.291" cy="87.67" fill="#ffd358" rx="87.709" ry="87.67"/>

  <!-- Cloud -->
  <path fill="#e5e7eb"
    d="M319.76 306h-169.4C67.32 306 0 238.84 0 156S67.32 6 150.36 6a150.4 150.4 0 0 1 143 103.5 101 101 0 0 1 26.4-3.5C375.12 106 420 150.77 420 206s-44.88 100-100.24 100"/>

  <!-- Subtle outline -->
  <path fill="#000" fill-opacity=".05"
    d="M150.36 306v-1zm169.4 0v1zm-26.4-196.5-.96.32.3.9.92-.25zm-143 197.5h169.4v-2h-169.4zM-1 156c0 83.4 67.77 151 151.36 151v-2C67.86 305 1 238.29 1 156z"/>

</svg>