<svg xmlns="http://www.w3.org/2000/svg" fill="none" viewBox="0 0 420 469"><g filter="url(#a)" opacity=".5" style="mix-blend-mode:color-burn"><path fill="url(#b)" fill-opacity=".3" fill-rule="evenodd" d="M237.14 435.52c-4.42 8.86-13.4 14.93-23.74 14.93-14.73 0-26.68-12.3-26.68-27.46q0-3.27.69-6.61c-2.15 5.28-3.36 10.32-3.36 15.23 0 15.17 11.95 27.46 26.68 27.46 13.45 0 24.57-10.23 26.41-23.55" clip-rule="evenodd"/></g><path fill="url(#c)" d="M237.15 431.48c0 15.16-11.95 27.46-26.68 27.46s-26.68-12.3-26.68-27.46 11.47-31.49 26.68-52.48c12.8 20.42 26.68 37.31 26.68 52.48" opacity=".5"/><ellipse cx="217.269" cy="408.904" fill="url(#d)" opacity=".3" rx="27.346" ry="28.754" style="mix-blend-mode:screen"/><ellipse cx="201.795" cy="440.246" fill="url(#e)" opacity=".3" rx="27.346" ry="28.754" style="mix-blend-mode:screen"/><g filter="url(#f)" opacity=".5" style="mix-blend-mode:color-burn"><path fill="url(#g)" fill-opacity=".3" fill-rule="evenodd" d="M159.26 361.8a24 24 0 0 1-21.2 12.46c-13.16 0-23.82-10.26-23.82-22.92q0-2.72.6-5.52c-1.9 4.4-2.99 8.62-2.99 12.72 0 12.66 10.67 22.93 23.83 22.93 12 0 21.93-8.55 23.58-19.67" clip-rule="evenodd"/></g><path fill="url(#h)" d="M159.26 358.43c0 12.66-10.67 22.92-23.82 22.92s-23.82-10.26-23.82-22.92 10.24-26.3 23.82-43.82c11.43 17.05 23.82 31.15 23.82 43.82" opacity=".5"/><ellipse cx="141.512" cy="339.579" fill="url(#i)" opacity=".3" rx="24.416" ry="24.008" style="mix-blend-mode:screen"/><ellipse cx="127.696" cy="365.748" fill="url(#j)" opacity=".3" rx="24.416" ry="24.008" style="mix-blend-mode:screen"/><g filter="url(#k)" opacity=".5" style="mix-blend-mode:color-burn"><path fill="url(#l)" fill-opacity=".3" fill-rule="evenodd" d="M309.62 361.8a24 24 0 0 1-21.2 12.46c-13.16 0-23.83-10.26-23.83-22.92q.01-2.72.62-5.52c-1.92 4.4-3 8.61-3 12.72 0 12.66 10.67 22.93 23.82 22.93 12 0 21.94-8.55 23.59-19.67" clip-rule="evenodd"/></g><path fill="url(#m)" d="M309.62 358.43c0 12.66-10.67 22.92-23.82 22.92s-23.83-10.26-23.83-22.92 10.25-26.3 23.83-43.82c11.43 17.05 23.82 31.15 23.82 43.82" opacity=".5"/><ellipse cx="291.87" cy="339.579" fill="url(#n)" opacity=".3" rx="24.416" ry="24.008" style="mix-blend-mode:screen"/><ellipse cx="278.054" cy="365.748" fill="url(#o)" opacity=".3" rx="24.416" ry="24.008" style="mix-blend-mode:screen"/><g filter="url(#p)"><ellipse cx="318.291" cy="87.67" fill="url(#q)" rx="87.709" ry="87.67"/></g><mask id="t" fill="#fff"><path fill-rule="evenodd" d="M319.76 306h-169.4C67.32 306 0 238.84 0 156S67.32 6 150.36 6a150.4 150.4 0 0 1 143 103.5 101 101 0 0 1 26.4-3.5C375.12 106 420 150.77 420 206s-44.88 100-100.24 100" clip-rule="evenodd"/></mask><g filter="url(#r)"><path fill="url(#s)" fill-rule="evenodd" d="M319.76 306h-169.4C67.32 306 0 238.84 0 156S67.32 6 150.36 6a150.4 150.4 0 0 1 143 103.5 101 101 0 0 1 26.4-3.5C375.12 106 420 150.77 420 206s-44.88 100-100.24 100" clip-rule="evenodd"/></g><path fill="#000" fill-opacity=".05" d="M150.36 306v-1zm169.4 0v1zm-26.4-196.5-.96.32.3.9.92-.25zm-143 197.5h169.4v-2h-169.4zM-1 156c0 83.4 67.77 151 151.36 151v-2C67.86 305 1 238.29 1 156zM150.36 5C66.76 5-1 72.6-1 156h2C1 73.71 67.87 7 150.36 7zM294.3 109.2A151.4 151.4 0 0 0 150.36 5v2A149.4 149.4 0 0 1 292.4 109.82zm-.68 1.27a100 100 0 0 1 26.14-3.47v-2c-9.23 0-18.17 1.23-26.67 3.54zm26.14-3.47c54.81 0 99.24 44.33 99.24 99h2c0-55.78-45.33-101-101.24-101zM419 206c0 54.67-44.43 99-99.24 99v2C375.67 307 421 261.78 421 206z" mask="url(#t)"/><defs><radialGradient id="b" cx="0" cy="0" r="1" gradientTransform="matrix(35.2169 -29.3291 19.5778 27.306 210.733 433.481)" gradientUnits="userSpaceOnUse"><stop stop-color="#3cc7f5"/><stop offset="0" stop-color="#3cc7f5"/><stop offset="1" stop-color="#004dff"/></radialGradient><radialGradient id="c" cx="0" cy="0" r="1" gradientTransform="matrix(35.2169 -29.3291 19.5778 27.306 210.466 433.345)" gradientUnits="userSpaceOnUse"><stop stop-color="#3cc7f5"/><stop offset="0" stop-color="#3cc7f5"/><stop offset="1" stop-color="#004dff"/></radialGradient><radialGradient id="d" cx="0" cy="0" r="1" gradientTransform="matrix(21.0568 33.6422 -9.26169 6.40902 217.269 408.904)" gradientUnits="userSpaceOnUse"><stop stop-color="#fff"/><stop offset=".555" stop-color="#bddbf1" stop-opacity=".25"/><stop offset="1" stop-color="#5686f5" stop-opacity="0"/></radialGradient><radialGradient id="e" cx="0" cy="0" r="1" gradientTransform="matrix(13.3397 16.9649 -7.652 6.98898 200.328 440.246)" gradientUnits="userSpaceOnUse"><stop stop-color="#fff"/><stop offset=".674" stop-color="#bddbf1" stop-opacity=".25"/><stop offset="1" stop-color="#5686f5" stop-opacity="0"/></radialGradient><radialGradient id="g" cx="0" cy="0" r="1" gradientTransform="matrix(31.4437 -24.4884 17.4801 22.7992 135.676 360.1)" gradientUnits="userSpaceOnUse"><stop stop-color="#3cc7f5"/><stop offset="0" stop-color="#3cc7f5"/><stop offset="1" stop-color="#004dff"/></radialGradient><radialGradient id="h" cx="0" cy="0" r="1" gradientTransform="matrix(31.4437 -24.4884 17.4801 22.7992 135.438 359.986)" gradientUnits="userSpaceOnUse"><stop stop-color="#3cc7f5"/><stop offset="0" stop-color="#3cc7f5"/><stop offset="1" stop-color="#004dff"/></radialGradient><radialGradient id="i" cx="0" cy="0" r="1" gradientTransform="matrix(18.8007 28.0897 -8.26936 5.35124 141.512 339.579)" gradientUnits="userSpaceOnUse"><stop stop-color="#fff"/><stop offset=".555" stop-color="#bddbf1" stop-opacity=".25"/><stop offset="1" stop-color="#5686f5" stop-opacity="0"/></radialGradient><radialGradient id="j" cx="0" cy="0" r="1" gradientTransform="matrix(11.9105 14.1649 -6.83214 5.83548 126.386 365.748)" gradientUnits="userSpaceOnUse"><stop stop-color="#fff"/><stop offset=".674" stop-color="#bddbf1" stop-opacity=".25"/><stop offset="1" stop-color="#5686f5" stop-opacity="0"/></radialGradient><radialGradient id="l" cx="0" cy="0" r="1" gradientTransform="matrix(31.4437 -24.4887 17.4801 22.7995 286.034 360.1)" gradientUnits="userSpaceOnUse"><stop stop-color="#3cc7f5"/><stop offset="0" stop-color="#3cc7f5"/><stop offset="1" stop-color="#004dff"/></radialGradient><radialGradient id="m" cx="0" cy="0" r="1" gradientTransform="matrix(31.4437 -24.4884 17.4801 22.7992 285.796 359.986)" gradientUnits="userSpaceOnUse"><stop stop-color="#3cc7f5"/><stop offset="0" stop-color="#3cc7f5"/><stop offset="1" stop-color="#004dff"/></radialGradient><radialGradient id="n" cx="0" cy="0" r="1" gradientTransform="matrix(18.8007 28.0897 -8.26936 5.35124 291.87 339.579)" gradientUnits="userSpaceOnUse"><stop stop-color="#fff"/><stop offset=".555" stop-color="#bddbf1" stop-opacity=".25"/><stop offset="1" stop-color="#5686f5" stop-opacity="0"/></radialGradient><radialGradient id="o" cx="0" cy="0" r="1" gradientTransform="matrix(11.9105 14.1649 -6.83214 5.83548 276.744 365.748)" gradientUnits="userSpaceOnUse"><stop stop-color="#fff"/><stop offset=".674" stop-color="#bddbf1" stop-opacity=".25"/><stop offset="1" stop-color="#5686f5" stop-opacity="0"/></radialGradient><filter id="a" width="69.091" height="58.692" x="176.053" y="408.38" color-interpolation-filters="sRGB" filterUnits="userSpaceOnUse"><feFlood flood-opacity="0" result="BackgroundImageFix"/><feBlend in="SourceGraphic" in2="BackgroundImageFix" result="shape"/><feGaussianBlur result="effect1_foregroundBlur_27_93" stdDeviation="4"/></filter><filter id="f" width="63.402" height="51.646" x="103.855" y="337.822" color-interpolation-filters="sRGB" filterUnits="userSpaceOnUse"><feFlood flood-opacity="0" result="BackgroundImageFix"/><feBlend in="SourceGraphic" in2="BackgroundImageFix" result="shape"/><feGaussianBlur result="effect1_foregroundBlur_27_93" stdDeviation="4"/></filter><filter id="k" width="63.402" height="51.646" x="254.213" y="337.821" color-interpolation-filters="sRGB" filterUnits="userSpaceOnUse"><feFlood flood-opacity="0" result="BackgroundImageFix"/><feBlend in="SourceGraphic" in2="BackgroundImageFix" result="shape"/><feGaussianBlur result="effect1_foregroundBlur_27_93" stdDeviation="4"/></filter><filter id="p" width="175.418" height="195.34" x="230.582" y="0" color-interpolation-filters="sRGB" filterUnits="userSpaceOnUse"><feFlood flood-opacity="0" result="BackgroundImageFix"/><feBlend in="SourceGraphic" in2="BackgroundImageFix" result="shape"/><feColorMatrix in="SourceAlpha" result="hardAlpha" values="0 0 0 0 0 0 0 0 0 0 0 0 0 0 0 0 0 0 127 0"/><feOffset dy="20"/><feGaussianBlur stdDeviation="35"/><feComposite in2="hardAlpha" k2="-1" k3="1" operator="arithmetic"/><feColorMatrix values="0 0 0 0 1 0 0 0 0 1 0 0 0 0 1 0 0 0 1 0"/><feBlend in2="shape" mode="overlay" result="effect1_innerShadow_27_93"/></filter><filter id="r" width="420" height="348.647" x="0" y="6" color-interpolation-filters="sRGB" filterUnits="userSpaceOnUse"><feFlood flood-opacity="0" result="BackgroundImageFix"/><feBlend in="SourceGraphic" in2="BackgroundImageFix" result="shape"/><feColorMatrix in="SourceAlpha" result="hardAlpha" values="0 0 0 0 0 0 0 0 0 0 0 0 0 0 0 0 0 0 127 0"/><feOffset dy="48.647"/><feGaussianBlur stdDeviation="30"/><feComposite in2="hardAlpha" k2="-1" k3="1" operator="arithmetic"/><feColorMatrix values="0 0 0 0 1 0 0 0 0 1 0 0 0 0 1 0 0 0 1 0"/><feBlend in2="shape" result="effect1_innerShadow_27_93"/></filter><linearGradient id="q" x1="318.291" x2="318.291" y1="0" y2="175.34" gradientUnits="userSpaceOnUse"><stop stop-color="#ffd358"/><stop offset="1" stop-color="#fa6c21"/></linearGradient><linearGradient id="s" x1="29.423" x2="419.459" y1="6" y2="306.861" gradientUnits="userSpaceOnUse"><stop stop-color="#fff"/><stop offset="1" stop-color="#c1c1c1"/></linearGradient></defs></svg>