<svg xmlns="http://www.w3.org/2000/svg" fill="none" viewBox="0 0 442 532"><g filter="url(#a)" opacity=".5" style="mix-blend-mode:color-burn"><path fill="url(#b)" fill-opacity=".3" fill-rule="evenodd" d="M263.87 497.91c-4.25 8.86-12.87 14.92-22.81 14.92-14.16 0-25.64-12.29-25.64-27.46q0-3.25.66-6.6c-2.07 5.28-3.23 10.31-3.23 15.23 0 15.17 11.48 27.46 25.64 27.46 12.92 0 23.61-10.24 25.38-23.55" clip-rule="evenodd"/></g><path fill="url(#c)" d="M263.88 493.87c0 15.16-11.48 27.46-25.64 27.46s-25.64-12.3-25.64-27.46 11.02-31.49 25.64-52.48c12.3 20.41 25.64 37.3 25.64 52.48" opacity=".5"/><ellipse cx="244.775" cy="471.293" fill="url(#d)" opacity=".3" rx="26.28" ry="28.754" style="mix-blend-mode:screen"/><ellipse cx="229.904" cy="502.635" fill="url(#e)" opacity=".3" rx="26.28" ry="28.754" style="mix-blend-mode:screen"/><g filter="url(#f)" opacity=".5" style="mix-blend-mode:color-burn"><path fill="url(#g)" fill-opacity=".3" fill-rule="evenodd" d="M189.03 424.2a22.89 22.89 0 0 1-43.27-10.47q0-2.73.59-5.52c-1.84 4.4-2.88 8.61-2.88 12.72a22.9 22.9 0 0 0 22.9 22.93 22.9 22.9 0 0 0 22.65-19.67" clip-rule="evenodd"/></g><path fill="url(#h)" d="M189.03 420.82a22.9 22.9 0 1 1-45.78 0c0-12.67 9.84-26.3 22.88-43.82 11 17.05 22.9 31.15 22.9 43.82" opacity=".5"/><ellipse cx="171.971" cy="401.969" fill="url(#i)" opacity=".3" rx="23.465" ry="24.008" style="mix-blend-mode:screen"/><ellipse cx="158.694" cy="428.138" fill="url(#j)" opacity=".3" rx="23.465" ry="24.008" style="mix-blend-mode:screen"/><g filter="url(#k)" opacity=".5" style="mix-blend-mode:color-burn"><path fill="url(#l)" fill-opacity=".3" fill-rule="evenodd" d="M333.52 424.2a22.89 22.89 0 0 1-43.26-10.47q0-2.73.58-5.52c-1.84 4.4-2.87 8.61-2.87 12.72a22.9 22.9 0 0 0 22.89 22.93 22.9 22.9 0 0 0 22.66-19.67" clip-rule="evenodd"/></g><path fill="url(#m)" d="M333.52 420.82a22.9 22.9 0 1 1-45.78 0c0-12.67 9.84-26.3 22.89-43.82 10.99 17.05 22.9 31.15 22.9 43.82" opacity=".5"/><ellipse cx="316.467" cy="401.969" fill="url(#n)" opacity=".3" rx="23.465" ry="24.008" style="mix-blend-mode:screen"/><ellipse cx="303.189" cy="428.138" fill="url(#o)" opacity=".3" rx="23.465" ry="24.008" style="mix-blend-mode:screen"/><g filter="url(#p)"><path fill="url(#q)" fill-rule="evenodd" d="M346.1 1.09A123 123 0 0 0 329.79 0c-64.63 0-117.02 50.37-117.02 112.5S265.16 225 329.78 225c48.61 0 90.3-28.5 107.98-69.05q-1.71.05-3.44.05c-59.03 0-106.88-44.32-106.88-99 0-20.75 6.9-40 18.67-55.91" clip-rule="evenodd"/></g><mask id="t" fill="#fff"><path fill-rule="evenodd" d="M319.76 367h-169.4C67.32 367 0 299.84 0 217S67.32 67 150.36 67a150.4 150.4 0 0 1 143 103.5 101 101 0 0 1 26.4-3.5C375.12 167 420 211.77 420 267s-44.88 100-100.24 100" clip-rule="evenodd"/></mask><g filter="url(#r)"><path fill="url(#s)" fill-rule="evenodd" d="M319.76 367h-169.4C67.32 367 0 299.84 0 217S67.32 67 150.36 67a150.4 150.4 0 0 1 143 103.5 101 101 0 0 1 26.4-3.5C375.12 167 420 211.77 420 267s-44.88 100-100.24 100" clip-rule="evenodd"/></g><path fill="#000" fill-opacity=".05" d="M150.36 367v-1zm169.4 0v1zm-26.4-196.5-.96.32.3.9.92-.25zm-143 197.5h169.4v-2h-169.4zM-1 217c0 83.4 67.77 151 151.36 151v-2C67.86 366 1 299.29 1 217zM150.36 66C66.76 66-1 133.6-1 217h2C1 134.71 67.87 68 150.36 68zM294.3 170.2A151.4 151.4 0 0 0 150.36 66v2A149.4 149.4 0 0 1 292.4 170.82zm-.68 1.27a100 100 0 0 1 26.14-3.47v-2c-9.23 0-18.17 1.23-26.67 3.54zm26.14-3.47c54.81 0 99.24 44.33 99.24 99h2c0-55.78-45.33-101-101.24-101zM419 267c0 54.67-44.43 99-99.24 99v2C375.67 368 421 322.78 421 267z" mask="url(#t)"/><defs><radialGradient id="b" cx="0" cy="0" r="1" gradientTransform="matrix(33.8438 -29.3291 18.8144 27.306 238.493 495.87)" gradientUnits="userSpaceOnUse"><stop stop-color="#3cc7f5"/><stop offset="0" stop-color="#3cc7f5"/><stop offset="1" stop-color="#004dff"/></radialGradient><radialGradient id="c" cx="0" cy="0" r="1" gradientTransform="matrix(33.8438 -29.3291 18.8144 27.306 238.237 495.734)" gradientUnits="userSpaceOnUse"><stop stop-color="#3cc7f5"/><stop offset="0" stop-color="#3cc7f5"/><stop offset="1" stop-color="#004dff"/></radialGradient><radialGradient id="d" cx="0" cy="0" r="1" gradientTransform="matrix(20.2358 33.6422 -8.90056 6.40902 244.775 471.293)" gradientUnits="userSpaceOnUse"><stop stop-color="#fff"/><stop offset=".555" stop-color="#bddbf1" stop-opacity=".25"/><stop offset="1" stop-color="#5686f5" stop-opacity="0"/></radialGradient><radialGradient id="e" cx="0" cy="0" r="1" gradientTransform="matrix(12.8196 16.9649 -7.35364 6.98898 228.494 502.635)" gradientUnits="userSpaceOnUse"><stop stop-color="#fff"/><stop offset=".674" stop-color="#bddbf1" stop-opacity=".25"/><stop offset="1" stop-color="#5686f5" stop-opacity="0"/></radialGradient><radialGradient id="g" cx="0" cy="0" r="1" gradientTransform="matrix(30.2177 -24.4884 16.7986 22.7992 166.363 422.489)" gradientUnits="userSpaceOnUse"><stop stop-color="#3cc7f5"/><stop offset="0" stop-color="#3cc7f5"/><stop offset="1" stop-color="#004dff"/></radialGradient><radialGradient id="h" cx="0" cy="0" r="1" gradientTransform="matrix(30.2177 -24.4884 16.7986 22.7992 166.134 422.376)" gradientUnits="userSpaceOnUse"><stop stop-color="#3cc7f5"/><stop offset="0" stop-color="#3cc7f5"/><stop offset="1" stop-color="#004dff"/></radialGradient><radialGradient id="i" cx="0" cy="0" r="1" gradientTransform="matrix(18.0677 28.0897 -7.94693 5.35124 171.971 401.969)" gradientUnits="userSpaceOnUse"><stop stop-color="#fff"/><stop offset=".555" stop-color="#bddbf1" stop-opacity=".25"/><stop offset="1" stop-color="#5686f5" stop-opacity="0"/></radialGradient><radialGradient id="j" cx="0" cy="0" r="1" gradientTransform="matrix(11.4461 14.1649 -6.56575 5.83548 157.435 428.138)" gradientUnits="userSpaceOnUse"><stop stop-color="#fff"/><stop offset=".674" stop-color="#bddbf1" stop-opacity=".25"/><stop offset="1" stop-color="#5686f5" stop-opacity="0"/></radialGradient><radialGradient id="l" cx="0" cy="0" r="1" gradientTransform="matrix(30.2177 -24.4887 16.7986 22.7995 310.858 422.489)" gradientUnits="userSpaceOnUse"><stop stop-color="#3cc7f5"/><stop offset="0" stop-color="#3cc7f5"/><stop offset="1" stop-color="#004dff"/></radialGradient><radialGradient id="m" cx="0" cy="0" r="1" gradientTransform="matrix(30.2177 -24.4884 16.7986 22.7992 310.629 422.376)" gradientUnits="userSpaceOnUse"><stop stop-color="#3cc7f5"/><stop offset="0" stop-color="#3cc7f5"/><stop offset="1" stop-color="#004dff"/></radialGradient><radialGradient id="n" cx="0" cy="0" r="1" gradientTransform="matrix(18.0677 28.0897 -7.94693 5.35124 316.467 401.969)" gradientUnits="userSpaceOnUse"><stop stop-color="#fff"/><stop offset=".555" stop-color="#bddbf1" stop-opacity=".25"/><stop offset="1" stop-color="#5686f5" stop-opacity="0"/></radialGradient><radialGradient id="o" cx="0" cy="0" r="1" gradientTransform="matrix(11.4461 14.1649 -6.56575 5.83548 301.93 428.138)" gradientUnits="userSpaceOnUse"><stop stop-color="#fff"/><stop offset=".674" stop-color="#bddbf1" stop-opacity=".25"/><stop offset="1" stop-color="#5686f5" stop-opacity="0"/></radialGradient><filter id="a" width="67.02" height="58.692" x="204.854" y="470.769" color-interpolation-filters="sRGB" filterUnits="userSpaceOnUse"><feFlood flood-opacity="0" result="BackgroundImageFix"/><feBlend in="SourceGraphic" in2="BackgroundImageFix" result="shape"/><feGaussianBlur result="effect1_foregroundBlur_30_560" stdDeviation="4"/></filter><filter id="f" width="61.554" height="51.646" x="135.471" y="400.211" color-interpolation-filters="sRGB" filterUnits="userSpaceOnUse"><feFlood flood-opacity="0" result="BackgroundImageFix"/><feBlend in="SourceGraphic" in2="BackgroundImageFix" result="shape"/><feGaussianBlur result="effect1_foregroundBlur_30_560" stdDeviation="4"/></filter><filter id="k" width="61.554" height="51.646" x="279.966" y="400.21" color-interpolation-filters="sRGB" filterUnits="userSpaceOnUse"><feFlood flood-opacity="0" result="BackgroundImageFix"/><feBlend in="SourceGraphic" in2="BackgroundImageFix" result="shape"/><feGaussianBlur result="effect1_foregroundBlur_30_560" stdDeviation="4"/></filter><filter id="p" width="254" height="240" x="187.759" y="0" color-interpolation-filters="sRGB" filterUnits="userSpaceOnUse"><feFlood flood-opacity="0" result="BackgroundImageFix"/><feColorMatrix in="SourceAlpha" result="hardAlpha" values="0 0 0 0 0 0 0 0 0 0 0 0 0 0 0 0 0 0 127 0"/><feOffset dy="4"/><feGaussianBlur stdDeviation="2"/><feComposite in2="hardAlpha" operator="out"/><feColorMatrix values="0 0 0 0 0 0 0 0 0 0 0 0 0 0 0 0 0 0 0.25 0"/><feBlend in2="BackgroundImageFix" result="effect1_dropShadow_30_560"/><feBlend in="SourceGraphic" in2="effect1_dropShadow_30_560" result="shape"/><feColorMatrix in="SourceAlpha" result="hardAlpha" values="0 0 0 0 0 0 0 0 0 0 0 0 0 0 0 0 0 0 127 0"/><feOffset dx="-25" dy="15"/><feGaussianBlur stdDeviation="12.5"/><feComposite in2="hardAlpha" k2="-1" k3="1" operator="arithmetic"/><feColorMatrix values="0 0 0 0 0.607843 0 0 0 0 0.529412 0 0 0 0 0.921569 0 0 0 1 0"/><feBlend in2="shape" result="effect2_innerShadow_30_560"/></filter><filter id="r" width="420" height="348.647" x="0" y="67" color-interpolation-filters="sRGB" filterUnits="userSpaceOnUse"><feFlood flood-opacity="0" result="BackgroundImageFix"/><feBlend in="SourceGraphic" in2="BackgroundImageFix" result="shape"/><feColorMatrix in="SourceAlpha" result="hardAlpha" values="0 0 0 0 0 0 0 0 0 0 0 0 0 0 0 0 0 0 127 0"/><feOffset dy="48.647"/><feGaussianBlur stdDeviation="30"/><feComposite in2="hardAlpha" k2="-1" k3="1" operator="arithmetic"/><feColorMatrix values="0 0 0 0 1 0 0 0 0 1 0 0 0 0 1 0 0 0 1 0"/><feBlend in2="shape" result="effect1_innerShadow_30_560"/></filter><linearGradient id="q" x1="226.021" x2="385.961" y1="0" y2="262.206" gradientUnits="userSpaceOnUse"><stop stop-color="#9b87eb"/><stop offset=".659" stop-color="#3010ac"/></linearGradient><linearGradient id="s" x1="29.423" x2="419.459" y1="67" y2="367.861" gradientUnits="userSpaceOnUse"><stop stop-color="#fff"/><stop offset="1" stop-color="#c1c1c1"/></linearGradient></defs></svg>