<svg xmlns="http://www.w3.org/2000/svg" fill="none" viewBox="0 0 442 360"><g filter="url(#a)"><path fill="url(#b)" fill-rule="evenodd" d="M346.1 1.09A123 123 0 0 0 329.79 0c-64.63 0-117.02 50.37-117.02 112.5S265.16 225 329.78 225c48.61 0 90.3-28.5 107.98-69.05q-1.71.05-3.44.05c-59.03 0-106.88-44.32-106.88-99 0-20.75 6.9-40 18.67-55.91" clip-rule="evenodd"/></g><mask id="e" fill="#fff"><path fill-rule="evenodd" d="M319.76 360h-169.4C67.32 360 0 292.84 0 210S67.32 60 150.36 60a150.4 150.4 0 0 1 143 103.5 101 101 0 0 1 26.4-3.5C375.12 160 420 204.77 420 260s-44.88 100-100.24 100" clip-rule="evenodd"/></mask><g filter="url(#c)"><path fill="url(#d)" fill-rule="evenodd" d="M319.76 360h-169.4C67.32 360 0 292.84 0 210S67.32 60 150.36 60a150.4 150.4 0 0 1 143 103.5 101 101 0 0 1 26.4-3.5C375.12 160 420 204.77 420 260s-44.88 100-100.24 100" clip-rule="evenodd"/></g><path fill="#000" fill-opacity=".05" d="M150.36 360v-1zm169.4 0v1zm-26.4-196.5-.96.32.3.9.92-.25zm-143 197.5h169.4v-2h-169.4zM-1 210c0 83.4 67.77 151 151.36 151v-2C67.86 359 1 292.29 1 210zM150.36 59C66.76 59-1 126.6-1 210h2C1 127.71 67.87 61 150.36 61zM294.3 163.2A151.4 151.4 0 0 0 150.36 59v2A149.4 149.4 0 0 1 292.4 163.82zm-.68 1.27a100 100 0 0 1 26.14-3.47v-2c-9.23 0-18.17 1.23-26.67 3.54zm26.14-3.47c54.81 0 99.24 44.33 99.24 99h2c0-55.78-45.33-101-101.24-101zM419 260c0 54.67-44.43 99-99.24 99v2C375.67 361 421 315.78 421 260z" mask="url(#e)"/><defs><linearGradient id="b" x1="226.021" x2="385.961" y1="0" y2="262.206" gradientUnits="userSpaceOnUse"><stop stop-color="#9b87eb"/><stop offset=".659" stop-color="#3010ac"/></linearGradient><linearGradient id="d" x1="29.423" x2="419.459" y1="60" y2="360.861" gradientUnits="userSpaceOnUse"><stop stop-color="#fff"/><stop offset="1" stop-color="#c1c1c1"/></linearGradient><filter id="a" width="254" height="240" x="187.759" y="0" color-interpolation-filters="sRGB" filterUnits="userSpaceOnUse"><feFlood flood-opacity="0" result="BackgroundImageFix"/><feColorMatrix in="SourceAlpha" result="hardAlpha" values="0 0 0 0 0 0 0 0 0 0 0 0 0 0 0 0 0 0 127 0"/><feOffset dy="4"/><feGaussianBlur stdDeviation="2"/><feComposite in2="hardAlpha" operator="out"/><feColorMatrix values="0 0 0 0 0 0 0 0 0 0 0 0 0 0 0 0 0 0 0.25 0"/><feBlend in2="BackgroundImageFix" result="effect1_dropShadow_30_526"/><feBlend in="SourceGraphic" in2="effect1_dropShadow_30_526" result="shape"/><feColorMatrix in="SourceAlpha" result="hardAlpha" values="0 0 0 0 0 0 0 0 0 0 0 0 0 0 0 0 0 0 127 0"/><feOffset dx="-25" dy="15"/><feGaussianBlur stdDeviation="12.5"/><feComposite in2="hardAlpha" k2="-1" k3="1" operator="arithmetic"/><feColorMatrix values="0 0 0 0 0.607843 0 0 0 0 0.529412 0 0 0 0 0.921569 0 0 0 1 0"/><feBlend in2="shape" result="effect2_innerShadow_30_526"/></filter><filter id="c" width="420" height="348.647" x="0" y="60" color-interpolation-filters="sRGB" filterUnits="userSpaceOnUse"><feFlood flood-opacity="0" result="BackgroundImageFix"/><feBlend in="SourceGraphic" in2="BackgroundImageFix" result="shape"/><feColorMatrix in="SourceAlpha" result="hardAlpha" values="0 0 0 0 0 0 0 0 0 0 0 0 0 0 0 0 0 0 127 0"/><feOffset dy="48.647"/><feGaussianBlur stdDeviation="30"/><feComposite in2="hardAlpha" k2="-1" k3="1" operator="arithmetic"/><feColorMatrix values="0 0 0 0 1 0 0 0 0 1 0 0 0 0 1 0 0 0 1 0"/><feBlend in2="shape" result="effect1_innerShadow_30_526"/></filter></defs></svg>