<svg xmlns="http://www.w3.org/2000/svg" fill="none" viewBox="0 0 459 408"><g filter="url(#a)"><path fill="url(#b)" fill-rule="evenodd" d="M291.83 1.93A218 218 0 0 0 262.82 0C147.91 0 54.77 89.54 54.77 200S147.9 400 262.8 400c86.42 0 160.53-50.65 191.96-122.76q-3.04.1-6.1.1c-104.95 0-190.02-78.8-190.02-176 0-36.9 12.25-71.12 33.19-99.4" clip-rule="evenodd"/></g><mask id="e" fill="#fff"><path fill-rule="evenodd" d="M280.17 360H131.74C58.98 360 0 299.56 0 225S58.98 90 131.74 90c58.5 0 108.1 39.08 125.3 93.16a86 86 0 0 1 23.13-3.16c48.5 0 87.83 40.3 87.83 90s-39.32 90-87.83 90" clip-rule="evenodd"/></mask><g filter="url(#c)"><path fill="url(#d)" fill-rule="evenodd" d="M280.17 360H131.74C58.98 360 0 299.56 0 225S58.98 90 131.74 90c58.5 0 108.1 39.08 125.3 93.16a86 86 0 0 1 23.13-3.16c48.5 0 87.83 40.3 87.83 90s-39.32 90-87.83 90" clip-rule="evenodd"/></g><path fill="#000" fill-opacity=".05" d="M131.74 360v-1zm148.43 0v1zm-23.14-176.84-.95.3.3.92.92-.26zM131.74 361h148.43v-2H131.74zM-1 225c0 75.09 59.4 136 132.74 136v-2C59.56 359 1 299.03 1 225zM131.74 89C58.41 89-1 149.91-1 225h2C1 150.97 59.56 91 131.74 91zM258 182.85C240.68 128.4 190.7 89 131.74 89v2c58.05 0 107.28 38.77 124.34 92.46zm-.69 1.27a85 85 0 0 1 22.87-3.12v-2a87 87 0 0 0-23.4 3.2zm22.87-3.12c47.93 0 86.83 39.82 86.83 89h2c0-50.23-39.75-91-88.83-91zM367 270c0 49.18-38.9 89-86.83 89v2c49.08 0 88.83-40.76 88.83-91z" mask="url(#e)"/><defs><linearGradient id="b" x1="78.347" x2="362.684" y1="0" y2="466.144" gradientUnits="userSpaceOnUse"><stop stop-color="#9b87eb"/><stop offset=".659" stop-color="#3010ac"/></linearGradient><linearGradient id="d" x1="25.78" x2="374.314" y1="90" y2="351.735" gradientUnits="userSpaceOnUse"><stop stop-color="#fff"/><stop offset="1" stop-color="#c1c1c1"/></linearGradient><filter id="a" width="429" height="415" x="29.769" y="0" color-interpolation-filters="sRGB" filterUnits="userSpaceOnUse"><feFlood flood-opacity="0" result="BackgroundImageFix"/><feColorMatrix in="SourceAlpha" result="hardAlpha" values="0 0 0 0 0 0 0 0 0 0 0 0 0 0 0 0 0 0 127 0"/><feOffset dy="4"/><feGaussianBlur stdDeviation="2"/><feComposite in2="hardAlpha" operator="out"/><feColorMatrix values="0 0 0 0 0 0 0 0 0 0 0 0 0 0 0 0 0 0 0.25 0"/><feBlend in2="BackgroundImageFix" result="effect1_dropShadow_30_551"/><feBlend in="SourceGraphic" in2="effect1_dropShadow_30_551" result="shape"/><feColorMatrix in="SourceAlpha" result="hardAlpha" values="0 0 0 0 0 0 0 0 0 0 0 0 0 0 0 0 0 0 127 0"/><feOffset dx="-25" dy="15"/><feGaussianBlur stdDeviation="12.5"/><feComposite in2="hardAlpha" k2="-1" k3="1" operator="arithmetic"/><feColorMatrix values="0 0 0 0 0.607843 0 0 0 0 0.529412 0 0 0 0 0.921569 0 0 0 1 0"/><feBlend in2="shape" result="effect2_innerShadow_30_551"/></filter><filter id="c" width="368" height="318.647" x="0" y="90" color-interpolation-filters="sRGB" filterUnits="userSpaceOnUse"><feFlood flood-opacity="0" result="BackgroundImageFix"/><feBlend in="SourceGraphic" in2="BackgroundImageFix" result="shape"/><feColorMatrix in="SourceAlpha" result="hardAlpha" values="0 0 0 0 0 0 0 0 0 0 0 0 0 0 0 0 0 0 127 0"/><feOffset dy="48.647"/><feGaussianBlur stdDeviation="30"/><feComposite in2="hardAlpha" k2="-1" k3="1" operator="arithmetic"/><feColorMatrix values="0 0 0 0 1 0 0 0 0 1 0 0 0 0 1 0 0 0 1 0"/><feBlend in2="shape" result="effect1_innerShadow_30_551"/></filter></defs></svg>