<svg xmlns="http://www.w3.org/2000/svg" fill="none" viewBox="0 0 500 500"><g filter="url(#a)"><circle cx="276" cy="250" r="200" fill="url(#b)"/></g><mask id="e" fill="#fff"><path fill-rule="evenodd" d="M304.17 400H155.74C82.98 400 24 339.56 24 265s58.98-135 131.74-135c58.5 0 108.1 39.08 125.3 93.16a86 86 0 0 1 23.13-3.16c48.5 0 87.83 40.3 87.83 90s-39.32 90-87.83 90" clip-rule="evenodd"/></mask><g filter="url(#c)"><path fill="url(#d)" fill-rule="evenodd" d="M304.17 400H155.74C82.98 400 24 339.56 24 265s58.98-135 131.74-135c58.5 0 108.1 39.08 125.3 93.16a86 86 0 0 1 23.13-3.16c48.5 0 87.83 40.3 87.83 90s-39.32 90-87.83 90" clip-rule="evenodd"/></g><path fill="#000" fill-opacity=".05" d="M155.74 400v-1zm148.43 0v1zm-23.14-176.84-.95.3.3.92.92-.26zM155.74 401h148.43v-2H155.74zM23 265c0 75.09 59.4 136 132.74 136v-2C83.56 399 25 339.03 25 265zm132.74-136C82.41 129 23 189.91 23 265h2c0-74.03 58.56-134 130.74-134zM282 222.85C264.68 168.4 214.7 129 155.74 129v2c58.05 0 107.28 38.77 124.34 92.46zm-.69 1.27a85 85 0 0 1 22.87-3.12v-2a87 87 0 0 0-23.4 3.2zm22.87-3.12c47.93 0 86.83 39.82 86.83 89h2c0-50.23-39.75-91-88.83-91zM391 310c0 49.18-38.9 89-86.83 89v2c49.08 0 88.83-40.76 88.83-91z" mask="url(#e)"/><defs><linearGradient id="b" x1="276" x2="276" y1="50" y2="450" gradientUnits="userSpaceOnUse"><stop stop-color="#ffd358"/><stop offset="1" stop-color="#fa6c21"/></linearGradient><linearGradient id="d" x1="49.78" x2="398.314" y1="130" y2="391.735" gradientUnits="userSpaceOnUse"><stop stop-color="#fff"/><stop offset="1" stop-color="#c1c1c1"/></linearGradient><filter id="a" width="400" height="420" x="76" y="50" color-interpolation-filters="sRGB" filterUnits="userSpaceOnUse"><feFlood flood-opacity="0" result="BackgroundImageFix"/><feBlend in="SourceGraphic" in2="BackgroundImageFix" result="shape"/><feColorMatrix in="SourceAlpha" result="hardAlpha" values="0 0 0 0 0 0 0 0 0 0 0 0 0 0 0 0 0 0 127 0"/><feOffset dy="20"/><feGaussianBlur stdDeviation="35"/><feComposite in2="hardAlpha" k2="-1" k3="1" operator="arithmetic"/><feColorMatrix values="0 0 0 0 1 0 0 0 0 1 0 0 0 0 1 0 0 0 1 0"/><feBlend in2="shape" mode="overlay" result="effect1_innerShadow_12_3"/></filter><filter id="c" width="368" height="318.647" x="24" y="130" color-interpolation-filters="sRGB" filterUnits="userSpaceOnUse"><feFlood flood-opacity="0" result="BackgroundImageFix"/><feBlend in="SourceGraphic" in2="BackgroundImageFix" result="shape"/><feColorMatrix in="SourceAlpha" result="hardAlpha" values="0 0 0 0 0 0 0 0 0 0 0 0 0 0 0 0 0 0 127 0"/><feOffset dy="48.647"/><feGaussianBlur stdDeviation="30"/><feComposite in2="hardAlpha" k2="-1" k3="1" operator="arithmetic"/><feColorMatrix values="0 0 0 0 1 0 0 0 0 1 0 0 0 0 1 0 0 0 1 0"/><feBlend in2="shape" result="effect1_innerShadow_12_3"/></filter></defs></svg>