<svg xmlns="http://www.w3.org/2000/svg" fill="none" viewBox="0 0 420 467"><g filter="url(#a)" opacity=".5" style="mix-blend-mode:color-burn"><path fill="url(#b)" fill-opacity=".3" fill-rule="evenodd" d="M206.06 433.52c-4.43 8.86-13.4 14.93-23.75 14.93-14.73 0-26.68-12.3-26.68-27.46q0-3.27.69-6.61c-2.15 5.28-3.35 10.32-3.35 15.23 0 15.17 11.94 27.46 26.68 27.46 13.44 0 24.56-10.23 26.4-23.55" clip-rule="evenodd"/></g><path fill="url(#c)" d="M206.06 429.48c0 15.16-11.94 27.46-26.68 27.46s-26.68-12.3-26.68-27.46 11.47-31.49 26.68-52.48c12.8 20.42 26.68 37.31 26.68 52.48" opacity=".5"/><ellipse cx="186.183" cy="406.904" fill="url(#d)" opacity=".3" rx="27.346" ry="28.754" style="mix-blend-mode:screen"/><ellipse cx="170.709" cy="438.246" fill="url(#e)" opacity=".3" rx="27.346" ry="28.754" style="mix-blend-mode:screen"/><g filter="url(#f)" opacity=".5" style="mix-blend-mode:color-burn"><path fill="url(#g)" fill-opacity=".3" fill-rule="evenodd" d="M252.47 362.2a24 24 0 0 1-21.2 12.45c-13.16 0-23.82-10.26-23.82-22.92q0-2.73.6-5.52c-1.9 4.4-2.99 8.61-2.99 12.72 0 12.66 10.67 22.93 23.83 22.93 12 0 21.93-8.55 23.58-19.67" clip-rule="evenodd"/></g><path fill="url(#h)" d="M252.47 358.82c0 12.66-10.67 22.92-23.82 22.92s-23.82-10.26-23.82-22.93 10.24-26.28 23.82-43.81c11.43 17.05 23.82 31.15 23.82 43.82" opacity=".5"/><ellipse cx="234.722" cy="339.969" fill="url(#i)" opacity=".3" rx="24.416" ry="24.008" style="mix-blend-mode:screen"/><ellipse cx="220.906" cy="366.138" fill="url(#j)" opacity=".3" rx="24.416" ry="24.008" style="mix-blend-mode:screen"/><g filter="url(#k)" opacity=".5" style="mix-blend-mode:color-burn"><path fill="url(#l)" fill-opacity=".3" fill-rule="evenodd" d="M306.3 433.52c-4.43 8.86-13.4 14.93-23.75 14.93-14.73 0-26.68-12.3-26.68-27.47q0-3.26.69-6.6c-2.15 5.28-3.35 10.32-3.35 15.23 0 15.17 11.94 27.46 26.68 27.46 13.44 0 24.56-10.23 26.4-23.55" clip-rule="evenodd"/></g><path fill="url(#m)" d="M306.3 429.48c0 15.16-11.95 27.46-26.68 27.46s-26.68-12.3-26.68-27.46 11.47-31.49 26.68-52.48c12.8 20.42 26.68 37.31 26.68 52.48" opacity=".5"/><ellipse cx="286.422" cy="406.904" fill="url(#n)" opacity=".3" rx="27.346" ry="28.754" style="mix-blend-mode:screen"/><ellipse cx="270.948" cy="438.246" fill="url(#o)" opacity=".3" rx="27.346" ry="28.754" style="mix-blend-mode:screen"/><g filter="url(#p)" opacity=".5" style="mix-blend-mode:color-burn"><path fill="url(#q)" fill-opacity=".3" fill-rule="evenodd" d="M154.23 361.8a24 24 0 0 1-21.2 12.46c-13.15 0-23.82-10.26-23.82-22.92q0-2.72.61-5.52c-1.91 4.4-2.99 8.62-2.99 12.72 0 12.66 10.67 22.93 23.82 22.93 12 0 21.94-8.55 23.58-19.67" clip-rule="evenodd"/></g><path fill="url(#r)" d="M154.24 358.43c0 12.66-10.67 22.92-23.83 22.92s-23.82-10.26-23.82-22.92 10.25-26.3 23.82-43.82c11.44 17.05 23.83 31.15 23.83 43.82" opacity=".5"/><ellipse cx="136.488" cy="339.579" fill="url(#s)" opacity=".3" rx="24.416" ry="24.008" style="mix-blend-mode:screen"/><ellipse cx="122.672" cy="365.748" fill="url(#t)" opacity=".3" rx="24.416" ry="24.008" style="mix-blend-mode:screen"/><g filter="url(#u)" opacity=".5" style="mix-blend-mode:color-burn"><path fill="url(#v)" fill-opacity=".3" fill-rule="evenodd" d="M349.7 362.2a24 24 0 0 1-21.2 12.45c-13.16 0-23.82-10.26-23.82-22.92q0-2.73.61-5.52c-1.92 4.4-3 8.61-3 12.72 0 12.66 10.67 22.93 23.83 22.93 12 0 21.93-8.55 23.58-19.67" clip-rule="evenodd"/></g><path fill="url(#w)" d="M349.7 358.82c0 12.66-10.66 22.92-23.82 22.92s-23.82-10.26-23.82-22.93 10.24-26.28 23.82-43.81c11.43 17.05 23.82 31.15 23.82 43.82" opacity=".5"/><ellipse cx="331.953" cy="339.969" fill="url(#x)" opacity=".3" rx="24.416" ry="24.008" style="mix-blend-mode:screen"/><ellipse cx="318.137" cy="366.138" fill="url(#y)" opacity=".3" rx="24.416" ry="24.008" style="mix-blend-mode:screen"/><g filter="url(#z)"><ellipse cx="313.291" cy="87.67" fill="url(#A)" rx="87.709" ry="87.67"/></g><mask id="D" fill="#fff"><path fill-rule="evenodd" d="M319.76 305h-169.4C67.32 305 0 237.84 0 155S67.32 5 150.36 5a150.4 150.4 0 0 1 143 103.5 101 101 0 0 1 26.4-3.5C375.12 105 420 149.77 420 205s-44.88 100-100.24 100" clip-rule="evenodd"/></mask><g filter="url(#B)"><path fill="url(#C)" fill-rule="evenodd" d="M319.76 305h-169.4C67.32 305 0 237.84 0 155S67.32 5 150.36 5a150.4 150.4 0 0 1 143 103.5 101 101 0 0 1 26.4-3.5C375.12 105 420 149.77 420 205s-44.88 100-100.24 100" clip-rule="evenodd"/></g><path fill="#000" fill-opacity=".05" d="M150.36 305v-1zm169.4 0v1zm-26.4-196.5-.96.32.3.9.92-.25zm-143 197.5h169.4v-2h-169.4zM-1 155c0 83.4 67.77 151 151.36 151v-2C67.86 304 1 237.29 1 155zM150.36 4C66.76 4-1 71.6-1 155h2C1 72.71 67.87 6 150.36 6zM294.3 108.2A151.4 151.4 0 0 0 150.36 4v2A149.4 149.4 0 0 1 292.4 108.82zm-.68 1.27a100 100 0 0 1 26.14-3.47v-2c-9.23 0-18.17 1.23-26.67 3.54zm26.14-3.47c54.81 0 99.24 44.33 99.24 99h2c0-55.78-45.33-101-101.24-101zM419 205c0 54.67-44.43 99-99.24 99v2C375.67 306 421 260.78 421 205z" mask="url(#D)"/><defs><radialGradient id="b" cx="0" cy="0" r="1" gradientTransform="matrix(35.2169 -29.3291 19.5778 27.306 179.647 431.481)" gradientUnits="userSpaceOnUse"><stop stop-color="#3cc7f5"/><stop offset="0" stop-color="#3cc7f5"/><stop offset="1" stop-color="#004dff"/></radialGradient><radialGradient id="c" cx="0" cy="0" r="1" gradientTransform="matrix(35.2169 -29.3291 19.5778 27.306 179.38 431.345)" gradientUnits="userSpaceOnUse"><stop stop-color="#3cc7f5"/><stop offset="0" stop-color="#3cc7f5"/><stop offset="1" stop-color="#004dff"/></radialGradient><radialGradient id="d" cx="0" cy="0" r="1" gradientTransform="matrix(21.0568 33.6422 -9.26169 6.40902 186.183 406.904)" gradientUnits="userSpaceOnUse"><stop stop-color="#fff"/><stop offset=".555" stop-color="#bddbf1" stop-opacity=".25"/><stop offset="1" stop-color="#5686f5" stop-opacity="0"/></radialGradient><radialGradient id="e" cx="0" cy="0" r="1" gradientTransform="matrix(13.3397 16.9649 -7.652 6.98898 169.242 438.246)" gradientUnits="userSpaceOnUse"><stop stop-color="#fff"/><stop offset=".674" stop-color="#bddbf1" stop-opacity=".25"/><stop offset="1" stop-color="#5686f5" stop-opacity="0"/></radialGradient><radialGradient id="g" cx="0" cy="0" r="1" gradientTransform="matrix(31.4437 -24.4882 17.4801 22.799 228.886 360.489)" gradientUnits="userSpaceOnUse"><stop stop-color="#3cc7f5"/><stop offset="0" stop-color="#3cc7f5"/><stop offset="1" stop-color="#004dff"/></radialGradient><radialGradient id="h" cx="0" cy="0" r="1" gradientTransform="matrix(31.4437 -24.4884 17.4801 22.7992 228.648 360.376)" gradientUnits="userSpaceOnUse"><stop stop-color="#3cc7f5"/><stop offset="0" stop-color="#3cc7f5"/><stop offset="1" stop-color="#004dff"/></radialGradient><radialGradient id="i" cx="0" cy="0" r="1" gradientTransform="matrix(18.8007 28.0897 -8.26936 5.35124 234.722 339.969)" gradientUnits="userSpaceOnUse"><stop stop-color="#fff"/><stop offset=".555" stop-color="#bddbf1" stop-opacity=".25"/><stop offset="1" stop-color="#5686f5" stop-opacity="0"/></radialGradient><radialGradient id="j" cx="0" cy="0" r="1" gradientTransform="matrix(11.9105 14.1649 -6.83214 5.83548 219.596 366.138)" gradientUnits="userSpaceOnUse"><stop stop-color="#fff"/><stop offset=".674" stop-color="#bddbf1" stop-opacity=".25"/><stop offset="1" stop-color="#5686f5" stop-opacity="0"/></radialGradient><radialGradient id="l" cx="0" cy="0" r="1" gradientTransform="matrix(35.2169 -29.3291 19.5778 27.306 279.886 431.481)" gradientUnits="userSpaceOnUse"><stop stop-color="#3cc7f5"/><stop offset="0" stop-color="#3cc7f5"/><stop offset="1" stop-color="#004dff"/></radialGradient><radialGradient id="m" cx="0" cy="0" r="1" gradientTransform="matrix(35.2169 -29.3291 19.5778 27.306 279.619 431.345)" gradientUnits="userSpaceOnUse"><stop stop-color="#3cc7f5"/><stop offset="0" stop-color="#3cc7f5"/><stop offset="1" stop-color="#004dff"/></radialGradient><radialGradient id="n" cx="0" cy="0" r="1" gradientTransform="matrix(21.0568 33.6422 -9.26169 6.40902 286.422 406.904)" gradientUnits="userSpaceOnUse"><stop stop-color="#fff"/><stop offset=".555" stop-color="#bddbf1" stop-opacity=".25"/><stop offset="1" stop-color="#5686f5" stop-opacity="0"/></radialGradient><radialGradient id="o" cx="0" cy="0" r="1" gradientTransform="matrix(13.3397 16.9649 -7.652 6.98898 269.481 438.246)" gradientUnits="userSpaceOnUse"><stop stop-color="#fff"/><stop offset=".674" stop-color="#bddbf1" stop-opacity=".25"/><stop offset="1" stop-color="#5686f5" stop-opacity="0"/></radialGradient><radialGradient id="q" cx="0" cy="0" r="1" gradientTransform="matrix(31.4437 -24.4882 17.4801 22.799 130.652 360.1)" gradientUnits="userSpaceOnUse"><stop stop-color="#3cc7f5"/><stop offset="0" stop-color="#3cc7f5"/><stop offset="1" stop-color="#004dff"/></radialGradient><radialGradient id="r" cx="0" cy="0" r="1" gradientTransform="matrix(31.4437 -24.4884 17.4801 22.7992 130.414 359.986)" gradientUnits="userSpaceOnUse"><stop stop-color="#3cc7f5"/><stop offset="0" stop-color="#3cc7f5"/><stop offset="1" stop-color="#004dff"/></radialGradient><radialGradient id="s" cx="0" cy="0" r="1" gradientTransform="matrix(18.8007 28.0897 -8.26936 5.35124 136.488 339.579)" gradientUnits="userSpaceOnUse"><stop stop-color="#fff"/><stop offset=".555" stop-color="#bddbf1" stop-opacity=".25"/><stop offset="1" stop-color="#5686f5" stop-opacity="0"/></radialGradient><radialGradient id="t" cx="0" cy="0" r="1" gradientTransform="matrix(11.9105 14.1649 -6.83214 5.83548 121.362 365.748)" gradientUnits="userSpaceOnUse"><stop stop-color="#fff"/><stop offset=".674" stop-color="#bddbf1" stop-opacity=".25"/><stop offset="1" stop-color="#5686f5" stop-opacity="0"/></radialGradient><radialGradient id="v" cx="0" cy="0" r="1" gradientTransform="matrix(31.4437 -24.4884 17.4801 22.7992 326.117 360.489)" gradientUnits="userSpaceOnUse"><stop stop-color="#3cc7f5"/><stop offset="0" stop-color="#3cc7f5"/><stop offset="1" stop-color="#004dff"/></radialGradient><radialGradient id="w" cx="0" cy="0" r="1" gradientTransform="matrix(31.4437 -24.4884 17.4801 22.7992 325.879 360.376)" gradientUnits="userSpaceOnUse"><stop stop-color="#3cc7f5"/><stop offset="0" stop-color="#3cc7f5"/><stop offset="1" stop-color="#004dff"/></radialGradient><radialGradient id="x" cx="0" cy="0" r="1" gradientTransform="matrix(18.8007 28.0897 -8.26936 5.35124 331.953 339.969)" gradientUnits="userSpaceOnUse"><stop stop-color="#fff"/><stop offset=".555" stop-color="#bddbf1" stop-opacity=".25"/><stop offset="1" stop-color="#5686f5" stop-opacity="0"/></radialGradient><radialGradient id="y" cx="0" cy="0" r="1" gradientTransform="matrix(11.9105 14.1649 -6.83214 5.83548 316.827 366.138)" gradientUnits="userSpaceOnUse"><stop stop-color="#fff"/><stop offset=".674" stop-color="#bddbf1" stop-opacity=".25"/><stop offset="1" stop-color="#5686f5" stop-opacity="0"/></radialGradient><filter id="a" width="69.091" height="58.692" x="144.967" y="406.38" color-interpolation-filters="sRGB" filterUnits="userSpaceOnUse"><feFlood flood-opacity="0" result="BackgroundImageFix"/><feBlend in="SourceGraphic" in2="BackgroundImageFix" result="shape"/><feGaussianBlur result="effect1_foregroundBlur_27_149" stdDeviation="4"/></filter><filter id="f" width="63.402" height="51.645" x="197.065" y="338.211" color-interpolation-filters="sRGB" filterUnits="userSpaceOnUse"><feFlood flood-opacity="0" result="BackgroundImageFix"/><feBlend in="SourceGraphic" in2="BackgroundImageFix" result="shape"/><feGaussianBlur result="effect1_foregroundBlur_27_149" stdDeviation="4"/></filter><filter id="k" width="69.091" height="58.692" x="245.206" y="406.38" color-interpolation-filters="sRGB" filterUnits="userSpaceOnUse"><feFlood flood-opacity="0" result="BackgroundImageFix"/><feBlend in="SourceGraphic" in2="BackgroundImageFix" result="shape"/><feGaussianBlur result="effect1_foregroundBlur_27_149" stdDeviation="4"/></filter><filter id="p" width="63.402" height="51.645" x="98.831" y="337.822" color-interpolation-filters="sRGB" filterUnits="userSpaceOnUse"><feFlood flood-opacity="0" result="BackgroundImageFix"/><feBlend in="SourceGraphic" in2="BackgroundImageFix" result="shape"/><feGaussianBlur result="effect1_foregroundBlur_27_149" stdDeviation="4"/></filter><filter id="u" width="63.402" height="51.646" x="294.296" y="338.211" color-interpolation-filters="sRGB" filterUnits="userSpaceOnUse"><feFlood flood-opacity="0" result="BackgroundImageFix"/><feBlend in="SourceGraphic" in2="BackgroundImageFix" result="shape"/><feGaussianBlur result="effect1_foregroundBlur_27_149" stdDeviation="4"/></filter><filter id="z" width="175.418" height="195.34" x="225.582" y="0" color-interpolation-filters="sRGB" filterUnits="userSpaceOnUse"><feFlood flood-opacity="0" result="BackgroundImageFix"/><feBlend in="SourceGraphic" in2="BackgroundImageFix" result="shape"/><feColorMatrix in="SourceAlpha" result="hardAlpha" values="0 0 0 0 0 0 0 0 0 0 0 0 0 0 0 0 0 0 127 0"/><feOffset dy="20"/><feGaussianBlur stdDeviation="35"/><feComposite in2="hardAlpha" k2="-1" k3="1" operator="arithmetic"/><feColorMatrix values="0 0 0 0 1 0 0 0 0 1 0 0 0 0 1 0 0 0 1 0"/><feBlend in2="shape" mode="overlay" result="effect1_innerShadow_27_149"/></filter><filter id="B" width="420" height="348.647" x="0" y="5" color-interpolation-filters="sRGB" filterUnits="userSpaceOnUse"><feFlood flood-opacity="0" result="BackgroundImageFix"/><feBlend in="SourceGraphic" in2="BackgroundImageFix" result="shape"/><feColorMatrix in="SourceAlpha" result="hardAlpha" values="0 0 0 0 0 0 0 0 0 0 0 0 0 0 0 0 0 0 127 0"/><feOffset dy="48.647"/><feGaussianBlur stdDeviation="30"/><feComposite in2="hardAlpha" k2="-1" k3="1" operator="arithmetic"/><feColorMatrix values="0 0 0 0 1 0 0 0 0 1 0 0 0 0 1 0 0 0 1 0"/><feBlend in2="shape" result="effect1_innerShadow_27_149"/></filter><linearGradient id="A" x1="313.291" x2="313.291" y1="0" y2="175.34" gradientUnits="userSpaceOnUse"><stop stop-color="#ffd358"/><stop offset="1" stop-color="#fa6c21"/></linearGradient><linearGradient id="C" x1="29.423" x2="419.459" y1="5" y2="305.861" gradientUnits="userSpaceOnUse"><stop stop-color="#fff"/><stop offset="1" stop-color="#c1c1c1"/></linearGradient></defs></svg>