<svg xmlns="http://www.w3.org/2000/svg" fill="none" viewBox="0 0 437 476"><ellipse cx="250.481" cy="460.433" fill="#cbaa8a" rx="2.32" ry="3.368"/><ellipse cx="293.848" cy="382.207" fill="#cbaa8a" rx="3.926" ry="5.699"/><ellipse cx="183.423" cy="394.683" fill="#cbaa8a" rx="4.061" ry="5.894"/><ellipse cx="376.298" cy="303.777" fill="#cbaa8a" rx="6.068" ry="8.808"/><ellipse cx="73.095" cy="23.588" fill="url(#a)" fill-opacity=".34" opacity=".75" rx="73.095" ry="23.588" transform="matrix(.9192 -.39378 .22062 .97536 202.474 342.819)"/><path fill="url(#b)" fill-opacity=".18" fill-rule="evenodd" d="M280.7 391.75c17.15-9.8 28.44-22.75 26.45-31.53-2.39-10.55-23.07-11.08-46.2-1.17s-39.94 26.5-37.55 37.05c1.42 6.29 9.33 9.02 20.38 8.1.17 8.16 3.44 19.07 8.47 31.7 13.43 24.9 50.91 42.45 56.96 39.06 1.96-1.1-.4-2.69-4.57-5.5-8.69-5.87-25.22-17.04-26.64-40.04-.69-11.15.69-20.37 1.73-27.34.65-4.34 1.17-7.81.97-10.33" clip-rule="evenodd" opacity=".75"/><ellipse cx="86.008" cy="30.746" fill="url(#c)" fill-opacity=".7" opacity=".75" rx="86.008" ry="30.746" transform="matrix(.9192 -.39378 .22062 .97536 198.548 298.849)"/><g filter="url(#d)"><ellipse cx="129.012" cy="36.115" fill="url(#e)" fill-opacity=".9" rx="129.012" ry="36.115" shape-rendering="crispEdges" transform="matrix(.9192 -.39378 .22062 .97536 117.662 271.319)"/></g><g filter="url(#f)"><path fill="url(#g)" fill-opacity=".9" fill-rule="evenodd" d="M259.12 258.57c79.28-34.4 138.36-84.95 131.96-112.9a17.4 17.4 0 0 0-6.03-9.6c13.44 1.08 21.95 5.37 23.7 13.07 5.33 23.58-54.7 70.26-134.06 104.26a522 522 0 0 1-51.51 19.04 459 459 0 0 0 35.94-13.87" clip-rule="evenodd"/></g><g filter="url(#h)"><path fill="url(#i)" fill-opacity=".9" fill-rule="evenodd" d="M266.3 261.6c-116.53 45.38-216.44 52.3-224.21 15.2-1.52-7.25.59-15.64 5.83-24.81-13.36 15.48-19.76 29.32-17.34 40.05 8.04 35.54 109.97 23.49 227.67-26.93a847 847 0 0 0 8.05-3.5" clip-rule="evenodd"/></g><g filter="url(#j)"><ellipse cx="163.154" cy="46.44" fill="url(#k)" fill-opacity=".9" rx="163.154" ry="46.44" shape-rendering="crispEdges" transform="matrix(.9192 -.39378 .22062 .97536 58.408 223.15)"/></g><g filter="url(#l)"><path fill="url(#m)" fill-rule="evenodd" d="M346.51 119.81c48.95-34.23 77.42-65.51 73.05-84.84-8.27-36.54-130.78-16.55-273.64 44.65a1159 1159 0 0 0-81.58 38.7 1248 1248 0 0 1 48.63-22.06C262.08 32.38 389.93 11.4 398.53 49.42c3.77 16.67-16.02 41.91-52.02 70.4" clip-rule="evenodd"/></g><g filter="url(#n)"><ellipse cx="192.66" cy="46.44" fill="url(#o)" rx="192.66" ry="46.44" transform="matrix(.9192 -.39378 .22062 .97536 0 178.258)"/></g><defs><linearGradient id="a" x1="1.968" x2="145.365" y1="23.344" y2="22.579" gradientUnits="userSpaceOnUse"><stop stop-color="#f3d9c4"/><stop offset="1" stop-color="#cfad90"/></linearGradient><linearGradient id="b" x1="243.721" x2="266.744" y1="430.235" y2="423.327" gradientUnits="userSpaceOnUse"><stop stop-color="#f3d9c4"/><stop offset="1" stop-color="#cfad90"/></linearGradient><linearGradient id="c" x1="2.316" x2="171.046" y1="30.428" y2="29.616" gradientUnits="userSpaceOnUse"><stop stop-color="#f3d9c4"/><stop offset="1" stop-color="#cfad90"/></linearGradient><linearGradient id="e" x1="3.474" x2="256.566" y1="35.742" y2="34.185" gradientUnits="userSpaceOnUse"><stop stop-color="#f3d9c4" stop-opacity=".75"/><stop offset="1" stop-color="#cfad90"/></linearGradient><linearGradient id="g" x1="125.087" x2="419.211" y1="270.176" y2="201.77" gradientUnits="userSpaceOnUse"><stop stop-color="#f3d9c4" stop-opacity=".75"/><stop offset="1" stop-color="#cfad90"/></linearGradient><linearGradient id="i" x1="36.17" x2="472.311" y1="288.912" y2="187.524" gradientUnits="userSpaceOnUse"><stop stop-color="#f3d9c4"/><stop offset="1" stop-color="#cfad90"/></linearGradient><linearGradient id="k" x1="4.393" x2="324.463" y1="45.96" y2="44.024" gradientUnits="userSpaceOnUse"><stop stop-color="#f3d9c4"/><stop offset="1" stop-color="#cfad90"/></linearGradient><linearGradient id="m" x1="19.661" x2="499.17" y1="95.291" y2="53.646" gradientUnits="userSpaceOnUse"><stop offset=".094" stop-color="#f9e7d9"/><stop offset="1" stop-color="#ecc7a8"/></linearGradient><linearGradient id="o" x1="5.187" x2="383.138" y1="45.96" y2="43.26" gradientUnits="userSpaceOnUse"><stop stop-color="#f3d9c4"/><stop offset="1" stop-color="#cfad90"/></linearGradient><filter id="d" width="241.65" height="127.581" x="123.393" y="193.916" color-interpolation-filters="sRGB" filterUnits="userSpaceOnUse"><feFlood flood-opacity="0" result="BackgroundImageFix"/><feColorMatrix in="SourceAlpha" result="hardAlpha" values="0 0 0 0 0 0 0 0 0 0 0 0 0 0 0 0 0 0 127 0"/><feOffset dy="1.965"/><feGaussianBlur stdDeviation=".982"/><feComposite in2="hardAlpha" operator="out"/><feColorMatrix values="0 0 0 0 0 0 0 0 0 0 0 0 0 0 0 0 0 0 0.25 0"/><feBlend in2="BackgroundImageFix" result="effect1_dropShadow_36_862"/><feBlend in="SourceGraphic" in2="effect1_dropShadow_36_862" result="shape"/></filter><filter id="f" width="206.379" height="156.864" x="212.935" y="125.821" color-interpolation-filters="sRGB" filterUnits="userSpaceOnUse"><feFlood flood-opacity="0" result="BackgroundImageFix"/><feBlend in="SourceGraphic" in2="BackgroundImageFix" result="shape"/><feGaussianBlur result="effect1_foregroundBlur_36_862" stdDeviation="5.121"/></filter><filter id="h" width="264.392" height="88.642" x="15.99" y="237.899" color-interpolation-filters="sRGB" filterUnits="userSpaceOnUse"><feFlood flood-opacity="0" result="BackgroundImageFix"/><feBlend in="SourceGraphic" in2="BackgroundImageFix" result="shape"/><feGaussianBlur result="effect1_foregroundBlur_36_862" stdDeviation="7.044"/></filter><filter id="j" width="304.583" height="161.161" x="66.333" y="125.583" color-interpolation-filters="sRGB" filterUnits="userSpaceOnUse"><feFlood flood-opacity="0" result="BackgroundImageFix"/><feColorMatrix in="SourceAlpha" result="hardAlpha" values="0 0 0 0 0 0 0 0 0 0 0 0 0 0 0 0 0 0 127 0"/><feOffset dy="1.965"/><feGaussianBlur stdDeviation=".982"/><feComposite in2="hardAlpha" operator="out"/><feColorMatrix values="0 0 0 0 0 0 0 0 0 0 0 0 0 0 0 0 0 0 0.25 0"/><feBlend in2="BackgroundImageFix" result="effect1_dropShadow_36_862"/><feBlend in="SourceGraphic" in2="effect1_dropShadow_36_862" result="shape"/></filter><filter id="l" width="389.059" height="136.515" x="47.642" y="0" color-interpolation-filters="sRGB" filterUnits="userSpaceOnUse"><feFlood flood-opacity="0" result="BackgroundImageFix"/><feBlend in="SourceGraphic" in2="BackgroundImageFix" result="shape"/><feGaussianBlur result="effect1_foregroundBlur_36_862" stdDeviation="8.35"/></filter><filter id="n" width="358.72" height="180.676" x="7.98" y="59.314" color-interpolation-filters="sRGB" filterUnits="userSpaceOnUse"><feFlood flood-opacity="0" result="BackgroundImageFix"/><feColorMatrix in="SourceAlpha" result="hardAlpha" values="0 0 0 0 0 0 0 0 0 0 0 0 0 0 0 0 0 0 127 0"/><feOffset dy="1.965"/><feGaussianBlur stdDeviation=".982"/><feComposite in2="hardAlpha" operator="out"/><feColorMatrix values="0 0 0 0 0 0 0 0 0 0 0 0 0 0 0 0 0 0 0.25 0"/><feBlend in2="BackgroundImageFix" result="effect1_dropShadow_36_862"/><feBlend in="SourceGraphic" in2="effect1_dropShadow_36_862" result="shape"/></filter></defs></svg>