<svg xmlns="http://www.w3.org/2000/svg" fill="none" viewBox="0 0 420 457"><g filter="url(#a)"><path fill="url(#b)" fill-rule="evenodd" d="M277.69 246h-67.42l-30.85 98.64h34.23L185.15 446l94.51-123.43h-50.32z" clip-rule="evenodd"/></g><g filter="url(#c)" opacity=".5" style="mix-blend-mode:color-burn"><path fill="url(#d)" fill-opacity=".3" fill-rule="evenodd" d="M174.26 377.8a24 24 0 0 1-21.2 12.46c-13.16 0-23.82-10.26-23.82-22.92q0-2.72.6-5.52c-1.91 4.4-2.99 8.61-2.99 12.72 0 12.66 10.67 22.93 23.82 22.93 12 0 21.94-8.55 23.59-19.67" clip-rule="evenodd"/></g><path fill="url(#e)" d="M174.26 374.43c0 12.66-10.67 22.92-23.82 22.92s-23.82-10.26-23.82-22.92 10.24-26.3 23.82-43.82c11.43 17.05 23.82 31.15 23.82 43.82" opacity=".5"/><ellipse cx="156.51" cy="355.58" fill="url(#f)" opacity=".3" rx="24.416" ry="24.008" style="mix-blend-mode:screen"/><ellipse cx="142.694" cy="381.749" fill="url(#g)" opacity=".3" rx="24.416" ry="24.008" style="mix-blend-mode:screen"/><g filter="url(#h)" opacity=".5" style="mix-blend-mode:color-burn"><path fill="url(#i)" fill-opacity=".3" fill-rule="evenodd" d="M324.61 377.8a24 24 0 0 1-21.2 12.46c-13.15 0-23.82-10.26-23.82-22.92q0-2.72.62-5.52c-1.92 4.4-3 8.61-3 12.72 0 12.66 10.67 22.93 23.82 22.93 12 0 21.94-8.55 23.58-19.67" clip-rule="evenodd"/></g><path fill="url(#j)" d="M324.62 374.43c0 12.66-10.67 22.92-23.83 22.92s-23.82-10.26-23.82-22.92 10.25-26.3 23.82-43.82c11.44 17.05 23.82 31.15 23.82 43.82" opacity=".5"/><ellipse cx="306.869" cy="355.58" fill="url(#k)" opacity=".3" rx="24.416" ry="24.008" style="mix-blend-mode:screen"/><ellipse cx="293.052" cy="381.749" fill="url(#l)" opacity=".3" rx="24.416" ry="24.008" style="mix-blend-mode:screen"/><g filter="url(#m)"><ellipse cx="328.709" cy="87.67" fill="url(#n)" rx="87.709" ry="87.67"/></g><mask id="q" fill="#fff"><path fill-rule="evenodd" d="M319.76 306.58h-169.4C67.32 306.58 0 239.3 0 156.3S67.32 6 150.36 6c66.77 0 123.38 43.5 143 103.7a100 100 0 0 1 26.4-3.5c55.36 0 100.24 44.85 100.24 100.19s-44.88 100.2-100.24 100.2" clip-rule="evenodd"/></mask><g filter="url(#o)"><path fill="url(#p)" fill-rule="evenodd" d="M319.76 306.58h-169.4C67.32 306.58 0 239.3 0 156.3S67.32 6 150.36 6c66.77 0 123.38 43.5 143 103.7a100 100 0 0 1 26.4-3.5c55.36 0 100.24 44.85 100.24 100.19s-44.88 100.2-100.24 100.2" clip-rule="evenodd"/></g><path fill="#000" fill-opacity=".05" d="M150.36 306.58v-1zm169.4 0v1zm-26.4-196.87-.96.3.3.91.92-.25zm-143 197.87h169.4v-2h-169.4zM-1 156.3c0 83.56 67.77 151.3 151.36 151.3v-2C67.86 305.58 1 238.73 1 156.28zM150.36 5C66.76 5-1 72.74-1 156.3h2C1 73.83 67.87 7 150.36 7zM294.3 109.4C274.56 48.8 217.58 5 150.36 5v2c66.33 0 122.56 43.22 142.04 103.02zm-.68 1.27a99 99 0 0 1 26.14-3.47v-2c-9.23 0-18.17 1.23-26.67 3.54zm26.14-3.47c54.81 0 99.24 44.4 99.24 99.19h2c0-55.89-45.33-101.2-101.24-101.2zM419 206.39c0 54.78-44.43 99.2-99.24 99.2v2c55.91 0 101.24-45.31 101.24-101.2z" mask="url(#q)"/><defs><radialGradient id="d" cx="0" cy="0" r="1" gradientTransform="matrix(31.4436 -24.4887 17.4801 22.7994 150.674 376.099)" gradientUnits="userSpaceOnUse"><stop stop-color="#3cc7f5"/><stop offset="0" stop-color="#3cc7f5"/><stop offset="1" stop-color="#004dff"/></radialGradient><radialGradient id="e" cx="0" cy="0" r="1" gradientTransform="matrix(31.4437 -24.4885 17.4801 22.7993 150.436 375.987)" gradientUnits="userSpaceOnUse"><stop stop-color="#3cc7f5"/><stop offset="0" stop-color="#3cc7f5"/><stop offset="1" stop-color="#004dff"/></radialGradient><radialGradient id="f" cx="0" cy="0" r="1" gradientTransform="matrix(18.8007 28.0897 -8.26936 5.35125 156.51 355.58)" gradientUnits="userSpaceOnUse"><stop stop-color="#fff"/><stop offset=".555" stop-color="#bddbf1" stop-opacity=".25"/><stop offset="1" stop-color="#5686f5" stop-opacity="0"/></radialGradient><radialGradient id="g" cx="0" cy="0" r="1" gradientTransform="matrix(11.9105 14.1649 -6.83214 5.83548 141.384 381.749)" gradientUnits="userSpaceOnUse"><stop stop-color="#fff"/><stop offset=".674" stop-color="#bddbf1" stop-opacity=".25"/><stop offset="1" stop-color="#5686f5" stop-opacity="0"/></radialGradient><radialGradient id="i" cx="0" cy="0" r="1" gradientTransform="matrix(31.4436 -24.4885 17.4801 22.7993 301.032 376.1)" gradientUnits="userSpaceOnUse"><stop stop-color="#3cc7f5"/><stop offset="0" stop-color="#3cc7f5"/><stop offset="1" stop-color="#004dff"/></radialGradient><radialGradient id="j" cx="0" cy="0" r="1" gradientTransform="matrix(31.4437 -24.4885 17.4801 22.7993 300.794 375.987)" gradientUnits="userSpaceOnUse"><stop stop-color="#3cc7f5"/><stop offset="0" stop-color="#3cc7f5"/><stop offset="1" stop-color="#004dff"/></radialGradient><radialGradient id="k" cx="0" cy="0" r="1" gradientTransform="matrix(18.8007 28.0897 -8.26936 5.35125 306.869 355.58)" gradientUnits="userSpaceOnUse"><stop stop-color="#fff"/><stop offset=".555" stop-color="#bddbf1" stop-opacity=".25"/><stop offset="1" stop-color="#5686f5" stop-opacity="0"/></radialGradient><radialGradient id="l" cx="0" cy="0" r="1" gradientTransform="matrix(11.9105 14.1649 -6.83214 5.83548 291.742 381.749)" gradientUnits="userSpaceOnUse"><stop stop-color="#fff"/><stop offset=".674" stop-color="#bddbf1" stop-opacity=".25"/><stop offset="1" stop-color="#5686f5" stop-opacity="0"/></radialGradient><filter id="a" width="120.263" height="220.024" x="169.412" y="235.988" color-interpolation-filters="sRGB" filterUnits="userSpaceOnUse"><feFlood flood-opacity="0" result="BackgroundImageFix"/><feBlend in="SourceGraphic" in2="BackgroundImageFix" result="shape"/><feGaussianBlur result="effect1_foregroundBlur_40_927" stdDeviation="5.006"/></filter><filter id="c" width="79.44" height="67.684" x="110.834" y="345.802" color-interpolation-filters="sRGB" filterUnits="userSpaceOnUse"><feFlood flood-opacity="0" result="BackgroundImageFix"/><feBlend in="SourceGraphic" in2="BackgroundImageFix" result="shape"/><feGaussianBlur result="effect1_foregroundBlur_40_927" stdDeviation="8.01"/></filter><filter id="h" width="79.44" height="67.684" x="261.192" y="345.802" color-interpolation-filters="sRGB" filterUnits="userSpaceOnUse"><feFlood flood-opacity="0" result="BackgroundImageFix"/><feBlend in="SourceGraphic" in2="BackgroundImageFix" result="shape"/><feGaussianBlur result="effect1_foregroundBlur_40_927" stdDeviation="8.01"/></filter><filter id="m" width="175.418" height="195.34" x="241" y="0" color-interpolation-filters="sRGB" filterUnits="userSpaceOnUse"><feFlood flood-opacity="0" result="BackgroundImageFix"/><feBlend in="SourceGraphic" in2="BackgroundImageFix" result="shape"/><feColorMatrix in="SourceAlpha" result="hardAlpha" values="0 0 0 0 0 0 0 0 0 0 0 0 0 0 0 0 0 0 127 0"/><feOffset dy="20"/><feGaussianBlur stdDeviation="35"/><feComposite in2="hardAlpha" k2="-1" k3="1" operator="arithmetic"/><feColorMatrix values="0 0 0 0 1 0 0 0 0 1 0 0 0 0 1 0 0 0 1 0"/><feBlend in2="shape" mode="overlay" result="effect1_innerShadow_40_927"/></filter><filter id="o" width="420" height="349.231" x="0" y="6" color-interpolation-filters="sRGB" filterUnits="userSpaceOnUse"><feFlood flood-opacity="0" result="BackgroundImageFix"/><feBlend in="SourceGraphic" in2="BackgroundImageFix" result="shape"/><feColorMatrix in="SourceAlpha" result="hardAlpha" values="0 0 0 0 0 0 0 0 0 0 0 0 0 0 0 0 0 0 127 0"/><feOffset dy="48.647"/><feGaussianBlur stdDeviation="30"/><feComposite in2="hardAlpha" k2="-1" k3="1" operator="arithmetic"/><feColorMatrix values="0 0 0 0 1 0 0 0 0 1 0 0 0 0 1 0 0 0 1 0"/><feBlend in2="shape" result="effect1_innerShadow_40_927"/></filter><linearGradient id="b" x1="229.543" x2="229.543" y1="246" y2="446" gradientUnits="userSpaceOnUse"><stop stop-color="#ffe176"/><stop offset=".479" stop-color="#fec255"/><stop offset="1" stop-color="#fea031"/></linearGradient><linearGradient id="n" x1="328.709" x2="328.709" y1="0" y2="175.34" gradientUnits="userSpaceOnUse"><stop stop-color="#ffd358"/><stop offset="1" stop-color="#fa6c21"/></linearGradient><linearGradient id="p" x1="29.423" x2="420.025" y1="6" y2="306.712" gradientUnits="userSpaceOnUse"><stop stop-color="#fff"/><stop offset="1" stop-color="#c1c1c1"/></linearGradient></defs></svg>