<svg xmlns="http://www.w3.org/2000/svg" fill="none" viewBox="0 0 424 512"><g filter="url(#a)"><path fill="url(#b)" fill-rule="evenodd" d="M265.9 307h-64.8l-29.63 98.64h32.89L176.98 507l90.82-123.43h-48.36z" clip-rule="evenodd"/></g><g filter="url(#c)" opacity=".5" style="mix-blend-mode:color-burn"><path fill="url(#d)" fill-opacity=".3" fill-rule="evenodd" d="M166.5 438.8a22.89 22.89 0 0 1-43.26-10.46q0-2.72.59-5.52c-1.85 4.4-2.88 8.61-2.88 12.72a22.9 22.9 0 0 0 22.89 22.93 22.9 22.9 0 0 0 22.66-19.67" clip-rule="evenodd"/></g><path fill="url(#e)" d="M166.5 435.43a22.9 22.9 0 1 1-45.79 0c0-12.66 9.85-26.3 22.9-43.82 10.99 17.05 22.9 31.15 22.9 43.82" opacity=".5"/><ellipse cx="149.448" cy="416.579" fill="url(#f)" opacity=".3" rx="23.465" ry="24.008" style="mix-blend-mode:screen"/><ellipse cx="136.171" cy="442.748" fill="url(#g)" opacity=".3" rx="23.465" ry="24.008" style="mix-blend-mode:screen"/><g filter="url(#h)" opacity=".5" style="mix-blend-mode:color-burn"><path fill="url(#i)" fill-opacity=".3" fill-rule="evenodd" d="M311 438.8a22.89 22.89 0 0 1-43.27-10.46q0-2.72.59-5.52c-1.84 4.4-2.88 8.61-2.88 12.72a22.9 22.9 0 0 0 22.9 22.93A22.9 22.9 0 0 0 311 438.8" clip-rule="evenodd"/></g><path fill="url(#j)" d="M311 435.43a22.9 22.9 0 1 1-45.79 0c0-12.67 9.85-26.3 22.9-43.82 10.98 17.05 22.89 31.15 22.89 43.82" opacity=".5"/><ellipse cx="293.944" cy="416.579" fill="url(#k)" opacity=".3" rx="23.465" ry="24.008" style="mix-blend-mode:screen"/><ellipse cx="280.666" cy="442.748" fill="url(#l)" opacity=".3" rx="23.465" ry="24.008" style="mix-blend-mode:screen"/><g filter="url(#m)"><path fill="url(#n)" fill-rule="evenodd" d="M331.51 1.09A115 115 0 0 0 315.75 0c-62.4 0-113 50.37-113 112.5s50.6 112.5 113 112.5c46.93 0 87.18-28.5 104.25-69.05q-1.65.05-3.32.05c-57 0-103.2-44.32-103.2-99 0-20.75 6.66-40 18.03-55.91" clip-rule="evenodd"/></g><mask id="q" fill="#fff"><path fill-rule="evenodd" d="M319.76 367h-169.4C67.32 367 0 299.84 0 217S67.32 67 150.36 67a150.4 150.4 0 0 1 143 103.5 101 101 0 0 1 26.4-3.5C375.12 167 420 211.77 420 267s-44.88 100-100.24 100" clip-rule="evenodd"/></mask><g filter="url(#o)"><path fill="url(#p)" fill-rule="evenodd" d="M319.76 367h-169.4C67.32 367 0 299.84 0 217S67.32 67 150.36 67a150.4 150.4 0 0 1 143 103.5 101 101 0 0 1 26.4-3.5C375.12 167 420 211.77 420 267s-44.88 100-100.24 100" clip-rule="evenodd"/></g><path fill="#000" fill-opacity=".05" d="M150.36 367v-1zm169.4 0v1zm-26.4-196.5-.96.32.3.9.92-.25zm-143 197.5h169.4v-2h-169.4zM-1 217c0 83.4 67.77 151 151.36 151v-2C67.86 366 1 299.29 1 217zM150.36 66C66.76 66-1 133.6-1 217h2C1 134.71 67.87 68 150.36 68zM294.3 170.2A151.4 151.4 0 0 0 150.36 66v2A149.4 149.4 0 0 1 292.4 170.82zm-.68 1.27a100 100 0 0 1 26.14-3.47v-2c-9.23 0-18.17 1.23-26.67 3.54zm26.14-3.47c54.81 0 99.24 44.33 99.24 99h2c0-55.78-45.33-101-101.24-101zM419 267c0 54.67-44.43 99-99.24 99v2C375.67 368 421 322.78 421 267z" mask="url(#q)"/><defs><radialGradient id="d" cx="0" cy="0" r="1" gradientTransform="matrix(30.2177 -24.4884 16.7986 22.7992 143.84 437.099)" gradientUnits="userSpaceOnUse"><stop stop-color="#3cc7f5"/><stop offset="0" stop-color="#3cc7f5"/><stop offset="1" stop-color="#004dff"/></radialGradient><radialGradient id="e" cx="0" cy="0" r="1" gradientTransform="matrix(30.2177 -24.4884 16.7986 22.7992 143.611 436.986)" gradientUnits="userSpaceOnUse"><stop stop-color="#3cc7f5"/><stop offset="0" stop-color="#3cc7f5"/><stop offset="1" stop-color="#004dff"/></radialGradient><radialGradient id="f" cx="0" cy="0" r="1" gradientTransform="matrix(18.0677 28.0897 -7.94693 5.35124 149.448 416.579)" gradientUnits="userSpaceOnUse"><stop stop-color="#fff"/><stop offset=".555" stop-color="#bddbf1" stop-opacity=".25"/><stop offset="1" stop-color="#5686f5" stop-opacity="0"/></radialGradient><radialGradient id="g" cx="0" cy="0" r="1" gradientTransform="matrix(11.4461 14.1649 -6.56575 5.83548 134.912 442.748)" gradientUnits="userSpaceOnUse"><stop stop-color="#fff"/><stop offset=".674" stop-color="#bddbf1" stop-opacity=".25"/><stop offset="1" stop-color="#5686f5" stop-opacity="0"/></radialGradient><radialGradient id="i" cx="0" cy="0" r="1" gradientTransform="matrix(30.2177 -24.4884 16.7986 22.7992 288.335 437.1)" gradientUnits="userSpaceOnUse"><stop stop-color="#3cc7f5"/><stop offset="0" stop-color="#3cc7f5"/><stop offset="1" stop-color="#004dff"/></radialGradient><radialGradient id="j" cx="0" cy="0" r="1" gradientTransform="matrix(30.2177 -24.4884 16.7986 22.7992 288.106 436.986)" gradientUnits="userSpaceOnUse"><stop stop-color="#3cc7f5"/><stop offset="0" stop-color="#3cc7f5"/><stop offset="1" stop-color="#004dff"/></radialGradient><radialGradient id="k" cx="0" cy="0" r="1" gradientTransform="matrix(18.0677 28.0897 -7.94693 5.35124 293.944 416.579)" gradientUnits="userSpaceOnUse"><stop stop-color="#fff"/><stop offset=".555" stop-color="#bddbf1" stop-opacity=".25"/><stop offset="1" stop-color="#5686f5" stop-opacity="0"/></radialGradient><radialGradient id="l" cx="0" cy="0" r="1" gradientTransform="matrix(11.4461 14.1649 -6.56575 5.83548 279.407 442.748)" gradientUnits="userSpaceOnUse"><stop stop-color="#fff"/><stop offset=".674" stop-color="#bddbf1" stop-opacity=".25"/><stop offset="1" stop-color="#5686f5" stop-opacity="0"/></radialGradient><filter id="a" width="106.33" height="210" x="166.468" y="302" color-interpolation-filters="sRGB" filterUnits="userSpaceOnUse"><feFlood flood-opacity="0" result="BackgroundImageFix"/><feBlend in="SourceGraphic" in2="BackgroundImageFix" result="shape"/><feGaussianBlur result="effect1_foregroundBlur_30_678" stdDeviation="2.5"/></filter><filter id="c" width="61.554" height="51.646" x="112.948" y="414.821" color-interpolation-filters="sRGB" filterUnits="userSpaceOnUse"><feFlood flood-opacity="0" result="BackgroundImageFix"/><feBlend in="SourceGraphic" in2="BackgroundImageFix" result="shape"/><feGaussianBlur result="effect1_foregroundBlur_30_678" stdDeviation="4"/></filter><filter id="h" width="61.554" height="51.645" x="257.443" y="414.822" color-interpolation-filters="sRGB" filterUnits="userSpaceOnUse"><feFlood flood-opacity="0" result="BackgroundImageFix"/><feBlend in="SourceGraphic" in2="BackgroundImageFix" result="shape"/><feGaussianBlur result="effect1_foregroundBlur_30_678" stdDeviation="4"/></filter><filter id="m" width="246.241" height="240" x="177.759" y="0" color-interpolation-filters="sRGB" filterUnits="userSpaceOnUse"><feFlood flood-opacity="0" result="BackgroundImageFix"/><feColorMatrix in="SourceAlpha" result="hardAlpha" values="0 0 0 0 0 0 0 0 0 0 0 0 0 0 0 0 0 0 127 0"/><feOffset dy="4"/><feGaussianBlur stdDeviation="2"/><feComposite in2="hardAlpha" operator="out"/><feColorMatrix values="0 0 0 0 0 0 0 0 0 0 0 0 0 0 0 0 0 0 0.25 0"/><feBlend in2="BackgroundImageFix" result="effect1_dropShadow_30_678"/><feBlend in="SourceGraphic" in2="effect1_dropShadow_30_678" result="shape"/><feColorMatrix in="SourceAlpha" result="hardAlpha" values="0 0 0 0 0 0 0 0 0 0 0 0 0 0 0 0 0 0 127 0"/><feOffset dx="-25" dy="15"/><feGaussianBlur stdDeviation="12.5"/><feComposite in2="hardAlpha" k2="-1" k3="1" operator="arithmetic"/><feColorMatrix values="0 0 0 0 0.607843 0 0 0 0 0.529412 0 0 0 0 0.921569 0 0 0 1 0"/><feBlend in2="shape" result="effect2_innerShadow_30_678"/></filter><filter id="o" width="420" height="348.647" x="0" y="67" color-interpolation-filters="sRGB" filterUnits="userSpaceOnUse"><feFlood flood-opacity="0" result="BackgroundImageFix"/><feBlend in="SourceGraphic" in2="BackgroundImageFix" result="shape"/><feColorMatrix in="SourceAlpha" result="hardAlpha" values="0 0 0 0 0 0 0 0 0 0 0 0 0 0 0 0 0 0 127 0"/><feOffset dy="48.647"/><feGaussianBlur stdDeviation="30"/><feComposite in2="hardAlpha" k2="-1" k3="1" operator="arithmetic"/><feColorMatrix values="0 0 0 0 1 0 0 0 0 1 0 0 0 0 1 0 0 0 1 0"/><feBlend in2="shape" result="effect1_innerShadow_30_678"/></filter><linearGradient id="b" x1="219.633" x2="219.633" y1="307" y2="507" gradientUnits="userSpaceOnUse"><stop stop-color="#ffe176"/><stop offset=".479" stop-color="#fec255"/><stop offset="1" stop-color="#fea031"/></linearGradient><linearGradient id="n" x1="215.564" x2="378.013" y1="0" y2="257.137" gradientUnits="userSpaceOnUse"><stop stop-color="#9b87eb"/><stop offset=".659" stop-color="#3010ac"/></linearGradient><linearGradient id="p" x1="29.423" x2="419.459" y1="67" y2="367.861" gradientUnits="userSpaceOnUse"><stop stop-color="#fff"/><stop offset="1" stop-color="#c1c1c1"/></linearGradient></defs></svg>