<svg xmlns="http://www.w3.org/2000/svg" fill="none" viewBox="0 0 420 462"><g filter="url(#a)"><path fill="url(#b)" fill-rule="evenodd" d="M205.52 240H138.1l-30.84 98.64h34.22L113 440l94.5-123.43h-50.31z" clip-rule="evenodd"/></g><g filter="url(#c)" opacity=".5" style="mix-blend-mode:color-burn"><path fill="url(#d)" fill-opacity=".3" fill-rule="evenodd" d="M248.27 353.55a19.1 19.1 0 0 1-16.96 10.28 19 19 0 0 1-19.06-18.92q0-2.25.5-4.55c-1.54 3.64-2.4 7.1-2.4 10.5a19 19 0 0 0 19.05 18.91c9.6 0 17.55-7.05 18.87-16.22" clip-rule="evenodd"/></g><path fill="url(#e)" d="M248.27 350.76c0 10.45-8.53 18.92-19.06 18.92s-19.05-8.47-19.05-18.92 8.2-21.69 19.05-36.15c9.15 14.06 19.06 25.7 19.06 36.15" opacity=".5"/><ellipse cx="234.073" cy="335.212" fill="url(#f)" opacity=".3" rx="19.533" ry="19.808" style="mix-blend-mode:screen"/><ellipse cx="223.02" cy="356.802" fill="url(#g)" opacity=".3" rx="19.533" ry="19.808" style="mix-blend-mode:screen"/><g filter="url(#h)" opacity=".5" style="mix-blend-mode:color-burn"><path fill="url(#i)" fill-opacity=".3" fill-rule="evenodd" d="M340.49 365.43c-3.16 6.4-9.57 10.78-16.96 10.78-10.52 0-19.06-8.88-19.06-19.83q0-2.36.5-4.77c-1.54 3.81-2.4 7.45-2.4 11 0 10.95 8.53 19.83 19.05 19.83 9.6 0 17.55-7.4 18.87-17" clip-rule="evenodd"/></g><path fill="url(#j)" d="M340.49 362.51c0 10.95-8.53 19.83-19.06 19.83s-19.05-8.88-19.05-19.83 8.2-22.74 19.05-37.9c9.15 14.74 19.06 26.95 19.06 37.9" opacity=".5"/><ellipse cx="326.293" cy="346.208" fill="url(#k)" opacity=".3" rx="19.533" ry="20.767" style="mix-blend-mode:screen"/><ellipse cx="315.24" cy="368.844" fill="url(#l)" opacity=".3" rx="19.533" ry="20.767" style="mix-blend-mode:screen"/><g filter="url(#m)" opacity=".5" style="mix-blend-mode:color-burn"><path fill="url(#n)" fill-opacity=".3" fill-rule="evenodd" d="M298.8 431.85a24.8 24.8 0 0 1-22.06 13.27c-13.68 0-24.77-10.93-24.77-24.41q0-2.9.64-5.87c-2 4.69-3.12 9.17-3.12 13.54 0 13.48 11.1 24.4 24.78 24.4 12.48 0 22.81-9.1 24.52-20.93" clip-rule="evenodd"/></g><path fill="url(#o)" d="M298.8 428.26c0 13.48-11.1 24.4-24.78 24.4s-24.77-10.92-24.77-24.4 10.65-28 24.77-46.65c11.9 18.15 24.77 33.17 24.77 46.65" opacity=".5"/><ellipse cx="280.337" cy="408.192" fill="url(#p)" opacity=".3" rx="25.393" ry="25.559" style="mix-blend-mode:screen"/><ellipse cx="265.968" cy="436.052" fill="url(#q)" opacity=".3" rx="25.393" ry="25.559" style="mix-blend-mode:screen"/><g filter="url(#r)"><ellipse cx="330.291" cy="87.67" fill="url(#s)" rx="87.709" ry="87.67"/></g><mask id="v" fill="#fff"><path fill-rule="evenodd" d="M319.76 307.58h-169.4C67.32 307.58 0 240.3 0 157.3S67.32 7 150.36 7c66.77 0 123.38 43.5 143 103.7a100 100 0 0 1 26.4-3.5c55.36 0 100.24 44.85 100.24 100.19s-44.88 100.2-100.24 100.2" clip-rule="evenodd"/></mask><g filter="url(#t)"><path fill="url(#u)" fill-rule="evenodd" d="M319.76 307.58h-169.4C67.32 307.58 0 240.3 0 157.3S67.32 7 150.36 7c66.77 0 123.38 43.5 143 103.7a100 100 0 0 1 26.4-3.5c55.36 0 100.24 44.85 100.24 100.19s-44.88 100.2-100.24 100.2" clip-rule="evenodd"/></g><path fill="#000" fill-opacity=".05" d="M150.36 307.58v-1zm169.4 0v1zm-26.4-196.87-.96.3.3.91.92-.25zm-143 197.87h169.4v-2h-169.4zM-1 157.3c0 83.56 67.77 151.3 151.36 151.3v-2C67.86 306.58 1 239.73 1 157.28zM150.36 6C66.76 6-1 73.74-1 157.3h2C1 74.83 67.87 8 150.36 8zM294.3 110.4C274.56 49.8 217.58 6 150.36 6v2c66.33 0 122.56 43.22 142.04 103.02zm-.68 1.27a99 99 0 0 1 26.14-3.47v-2c-9.23 0-18.17 1.23-26.67 3.54zm26.14-3.47c54.81 0 99.24 44.4 99.24 99.19h2c0-55.89-45.33-101.2-101.24-101.2zM419 207.39c0 54.78-44.43 99.2-99.24 99.2v2c55.91 0 101.24-45.31 101.24-101.2z" mask="url(#v)"/><defs><radialGradient id="d" cx="0" cy="0" r="1" gradientTransform="matrix(25.1551 -20.2037 13.9842 18.8101 229.404 352.143)" gradientUnits="userSpaceOnUse"><stop stop-color="#3cc7f5"/><stop offset="0" stop-color="#3cc7f5"/><stop offset="1" stop-color="#004dff"/></radialGradient><radialGradient id="e" cx="0" cy="0" r="1" gradientTransform="matrix(25.155 -20.2045 13.9841 18.8108 229.214 352.049)" gradientUnits="userSpaceOnUse"><stop stop-color="#3cc7f5"/><stop offset="0" stop-color="#3cc7f5"/><stop offset="1" stop-color="#004dff"/></radialGradient><radialGradient id="f" cx="0" cy="0" r="1" gradientTransform="matrix(15.0406 23.1757 -6.61549 4.4151 234.073 335.212)" gradientUnits="userSpaceOnUse"><stop stop-color="#fff"/><stop offset=".555" stop-color="#bddbf1" stop-opacity=".25"/><stop offset="1" stop-color="#5686f5" stop-opacity="0"/></radialGradient><radialGradient id="g" cx="0" cy="0" r="1" gradientTransform="matrix(9.52839 11.6869 -5.46571 4.81463 221.972 356.802)" gradientUnits="userSpaceOnUse"><stop stop-color="#fff"/><stop offset=".674" stop-color="#bddbf1" stop-opacity=".25"/><stop offset="1" stop-color="#5686f5" stop-opacity="0"/></radialGradient><radialGradient id="i" cx="0" cy="0" r="1" gradientTransform="matrix(25.1549 -21.1821 13.9841 19.721 321.624 363.958)" gradientUnits="userSpaceOnUse"><stop stop-color="#3cc7f5"/><stop offset="0" stop-color="#3cc7f5"/><stop offset="1" stop-color="#004dff"/></radialGradient><radialGradient id="j" cx="0" cy="0" r="1" gradientTransform="matrix(25.1549 -21.1821 13.9841 19.721 321.433 363.86)" gradientUnits="userSpaceOnUse"><stop stop-color="#3cc7f5"/><stop offset="0" stop-color="#3cc7f5"/><stop offset="1" stop-color="#004dff"/></radialGradient><radialGradient id="k" cx="0" cy="0" r="1" gradientTransform="matrix(15.0406 24.2971 -6.61549 4.62874 326.293 346.208)" gradientUnits="userSpaceOnUse"><stop stop-color="#fff"/><stop offset=".555" stop-color="#bddbf1" stop-opacity=".25"/><stop offset="1" stop-color="#5686f5" stop-opacity="0"/></radialGradient><radialGradient id="l" cx="0" cy="0" r="1" gradientTransform="matrix(9.52839 12.2524 -5.46571 5.04759 314.192 368.844)" gradientUnits="userSpaceOnUse"><stop stop-color="#fff"/><stop offset=".674" stop-color="#bddbf1" stop-opacity=".25"/><stop offset="1" stop-color="#5686f5" stop-opacity="0"/></radialGradient><radialGradient id="n" cx="0" cy="0" r="1" gradientTransform="matrix(32.7015 -26.0701 18.1794 24.2718 274.268 430.038)" gradientUnits="userSpaceOnUse"><stop stop-color="#3cc7f5"/><stop offset="0" stop-color="#3cc7f5"/><stop offset="1" stop-color="#004dff"/></radialGradient><radialGradient id="o" cx="0" cy="0" r="1" gradientTransform="matrix(32.7014 -26.0703 18.1793 24.272 274.02 429.918)" gradientUnits="userSpaceOnUse"><stop stop-color="#3cc7f5"/><stop offset="0" stop-color="#3cc7f5"/><stop offset="1" stop-color="#004dff"/></radialGradient><radialGradient id="p" cx="0" cy="0" r="1" gradientTransform="matrix(19.5527 29.9042 -8.60014 5.69691 280.337 408.192)" gradientUnits="userSpaceOnUse"><stop stop-color="#fff"/><stop offset=".555" stop-color="#bddbf1" stop-opacity=".25"/><stop offset="1" stop-color="#5686f5" stop-opacity="0"/></radialGradient><radialGradient id="q" cx="0" cy="0" r="1" gradientTransform="matrix(12.3869 15.0799 -7.10543 6.21242 264.606 436.052)" gradientUnits="userSpaceOnUse"><stop stop-color="#fff"/><stop offset=".674" stop-color="#bddbf1" stop-opacity=".25"/><stop offset="1" stop-color="#5686f5" stop-opacity="0"/></radialGradient><filter id="a" width="110.239" height="210" x="102.258" y="235" color-interpolation-filters="sRGB" filterUnits="userSpaceOnUse"><feFlood flood-opacity="0" result="BackgroundImageFix"/><feBlend in="SourceGraphic" in2="BackgroundImageFix" result="shape"/><feGaussianBlur result="effect1_foregroundBlur_29_285" stdDeviation="2.5"/></filter><filter id="c" width="53.922" height="45.409" x="202.347" y="332.363" color-interpolation-filters="sRGB" filterUnits="userSpaceOnUse"><feFlood flood-opacity="0" result="BackgroundImageFix"/><feBlend in="SourceGraphic" in2="BackgroundImageFix" result="shape"/><feGaussianBlur result="effect1_foregroundBlur_29_285" stdDeviation="4"/></filter><filter id="h" width="53.922" height="46.833" x="294.567" y="343.608" color-interpolation-filters="sRGB" filterUnits="userSpaceOnUse"><feFlood flood-opacity="0" result="BackgroundImageFix"/><feBlend in="SourceGraphic" in2="BackgroundImageFix" result="shape"/><feGaussianBlur result="effect1_foregroundBlur_29_285" stdDeviation="4"/></filter><filter id="m" width="65.298" height="53.948" x="241.494" y="406.838" color-interpolation-filters="sRGB" filterUnits="userSpaceOnUse"><feFlood flood-opacity="0" result="BackgroundImageFix"/><feBlend in="SourceGraphic" in2="BackgroundImageFix" result="shape"/><feGaussianBlur result="effect1_foregroundBlur_29_285" stdDeviation="4"/></filter><filter id="r" width="175.418" height="195.34" x="242.582" y="0" color-interpolation-filters="sRGB" filterUnits="userSpaceOnUse"><feFlood flood-opacity="0" result="BackgroundImageFix"/><feBlend in="SourceGraphic" in2="BackgroundImageFix" result="shape"/><feColorMatrix in="SourceAlpha" result="hardAlpha" values="0 0 0 0 0 0 0 0 0 0 0 0 0 0 0 0 0 0 127 0"/><feOffset dy="20"/><feGaussianBlur stdDeviation="35"/><feComposite in2="hardAlpha" k2="-1" k3="1" operator="arithmetic"/><feColorMatrix values="0 0 0 0 1 0 0 0 0 1 0 0 0 0 1 0 0 0 1 0"/><feBlend in2="shape" mode="overlay" result="effect1_innerShadow_29_285"/></filter><filter id="t" width="420" height="349.231" x="0" y="7" color-interpolation-filters="sRGB" filterUnits="userSpaceOnUse"><feFlood flood-opacity="0" result="BackgroundImageFix"/><feBlend in="SourceGraphic" in2="BackgroundImageFix" result="shape"/><feColorMatrix in="SourceAlpha" result="hardAlpha" values="0 0 0 0 0 0 0 0 0 0 0 0 0 0 0 0 0 0 127 0"/><feOffset dy="48.647"/><feGaussianBlur stdDeviation="30"/><feComposite in2="hardAlpha" k2="-1" k3="1" operator="arithmetic"/><feColorMatrix values="0 0 0 0 1 0 0 0 0 1 0 0 0 0 1 0 0 0 1 0"/><feBlend in2="shape" result="effect1_innerShadow_29_285"/></filter><linearGradient id="b" x1="157.377" x2="157.377" y1="240" y2="440" gradientUnits="userSpaceOnUse"><stop stop-color="#ffe176"/><stop offset=".479" stop-color="#fec255"/><stop offset="1" stop-color="#fea031"/></linearGradient><linearGradient id="s" x1="330.291" x2="330.291" y1="0" y2="175.34" gradientUnits="userSpaceOnUse"><stop stop-color="#ffd358"/><stop offset="1" stop-color="#fa6c21"/></linearGradient><linearGradient id="u" x1="29.423" x2="420.025" y1="7" y2="307.712" gradientUnits="userSpaceOnUse"><stop stop-color="#fff"/><stop offset="1" stop-color="#c1c1c1"/></linearGradient></defs></svg>