<svg xmlns="http://www.w3.org/2000/svg" fill="none" viewBox="0 0 424 529"><g filter="url(#a)"><path fill="url(#b)" fill-rule="evenodd" d="M208.47 307h-64.8l-29.63 98.64h32.89L119.55 507l90.82-123.43H162z" clip-rule="evenodd"/></g><g filter="url(#c)" opacity=".5" style="mix-blend-mode:color-burn"><path fill="url(#d)" fill-opacity=".3" fill-rule="evenodd" d="M249.55 420.55a18.3 18.3 0 0 1-16.3 10.28c-10.11 0-18.31-8.47-18.31-18.92q0-2.25.47-4.55a28 28 0 0 0-2.3 10.5c0 10.44 8.2 18.91 18.31 18.91 9.23 0 16.86-7.05 18.13-16.22" clip-rule="evenodd"/></g><path fill="url(#e)" d="M249.55 417.76c0 10.45-8.2 18.92-18.31 18.92s-18.32-8.47-18.32-18.92 7.88-21.69 18.32-36.15c8.79 14.06 18.31 25.7 18.31 36.15" opacity=".5"/><ellipse cx="235.907" cy="402.212" fill="url(#f)" opacity=".3" rx="18.772" ry="19.808" style="mix-blend-mode:screen"/><ellipse cx="225.285" cy="423.802" fill="url(#g)" opacity=".3" rx="18.772" ry="19.808" style="mix-blend-mode:screen"/><g filter="url(#h)" opacity=".5" style="mix-blend-mode:color-burn"><path fill="url(#i)" fill-opacity=".3" fill-rule="evenodd" d="M338.17 432.43c-3.03 6.4-9.2 10.78-16.3 10.78-10.1 0-18.3-8.88-18.3-19.83q0-2.36.46-4.77a31 31 0 0 0-2.3 11c0 10.95 8.2 19.83 18.31 19.83 9.23 0 16.87-7.4 18.13-17" clip-rule="evenodd"/></g><path fill="url(#j)" d="M338.18 429.51c0 10.95-8.2 19.83-18.32 19.83s-18.31-8.88-18.31-19.83 7.87-22.74 18.31-37.9c8.8 14.74 18.31 26.95 18.31 37.9" opacity=".5"/><ellipse cx="324.531" cy="413.208" fill="url(#k)" opacity=".3" rx="18.772" ry="20.767" style="mix-blend-mode:screen"/><ellipse cx="313.909" cy="435.844" fill="url(#l)" opacity=".3" rx="18.772" ry="20.767" style="mix-blend-mode:screen"/><g filter="url(#m)" opacity=".5" style="mix-blend-mode:color-burn"><path fill="url(#n)" fill-opacity=".3" fill-rule="evenodd" d="M298.1 498.85a23.8 23.8 0 0 1-21.19 13.27c-13.14 0-23.8-10.93-23.8-24.41q0-2.9.6-5.87c-1.9 4.69-2.98 9.17-2.98 13.54 0 13.48 10.66 24.4 23.8 24.4 12 0 21.93-9.1 23.57-20.93" clip-rule="evenodd"/></g><path fill="url(#o)" d="M298.1 495.26c0 13.48-10.66 24.4-23.8 24.4s-23.81-10.92-23.81-24.4 10.24-28 23.8-46.65c11.43 18.15 23.81 33.17 23.81 46.65" opacity=".5"/><ellipse cx="280.367" cy="475.192" fill="url(#p)" opacity=".3" rx="24.403" ry="25.559" style="mix-blend-mode:screen"/><ellipse cx="266.559" cy="503.052" fill="url(#q)" opacity=".3" rx="24.403" ry="25.559" style="mix-blend-mode:screen"/><g filter="url(#r)"><path fill="url(#s)" fill-rule="evenodd" d="M331.51 1.09A115 115 0 0 0 315.75 0c-62.4 0-113 50.37-113 112.5s50.6 112.5 113 112.5c46.93 0 87.18-28.5 104.25-69.05q-1.65.05-3.32.05c-56.99 0-103.2-44.32-103.2-99 0-20.75 6.66-40 18.03-55.91" clip-rule="evenodd"/></g><mask id="v" fill="#fff"><path fill-rule="evenodd" d="M319.76 367h-169.4C67.32 367 0 299.84 0 217S67.32 67 150.36 67a150.4 150.4 0 0 1 143 103.5 101 101 0 0 1 26.4-3.5C375.12 167 420 211.77 420 267s-44.88 100-100.24 100" clip-rule="evenodd"/></mask><g filter="url(#t)"><path fill="url(#u)" fill-rule="evenodd" d="M319.76 367h-169.4C67.32 367 0 299.84 0 217S67.32 67 150.36 67a150.4 150.4 0 0 1 143 103.5 101 101 0 0 1 26.4-3.5C375.12 167 420 211.77 420 267s-44.88 100-100.24 100" clip-rule="evenodd"/></g><path fill="#000" fill-opacity=".05" d="M150.36 367v-1zm169.4 0v1zm-26.4-196.5-.96.32.3.9.92-.25zm-143 197.5h169.4v-2h-169.4zM-1 217c0 83.4 67.77 151 151.36 151v-2C67.86 366 1 299.29 1 217zM150.36 66C66.76 66-1 133.6-1 217h2C1 134.71 67.87 68 150.36 68zM294.3 170.2A151.4 151.4 0 0 0 150.36 66v2A149.4 149.4 0 0 1 292.4 170.82zm-.68 1.27a100 100 0 0 1 26.14-3.47v-2c-9.23 0-18.17 1.23-26.67 3.54zm26.14-3.47c54.81 0 99.24 44.33 99.24 99h2c0-55.78-45.33-101-101.24-101zM419 267c0 54.67-44.43 99-99.24 99v2C375.67 368 421 322.78 421 267z" mask="url(#v)"/><defs><radialGradient id="d" cx="0" cy="0" r="1" gradientTransform="matrix(24.1742 -20.2039 13.4389 18.8102 231.42 419.143)" gradientUnits="userSpaceOnUse"><stop stop-color="#3cc7f5"/><stop offset="0" stop-color="#3cc7f5"/><stop offset="1" stop-color="#004dff"/></radialGradient><radialGradient id="e" cx="0" cy="0" r="1" gradientTransform="matrix(24.1741 -20.2045 13.4389 18.8108 231.237 419.049)" gradientUnits="userSpaceOnUse"><stop stop-color="#3cc7f5"/><stop offset="0" stop-color="#3cc7f5"/><stop offset="1" stop-color="#004dff"/></radialGradient><radialGradient id="f" cx="0" cy="0" r="1" gradientTransform="matrix(14.4541 23.1757 -6.35755 4.4151 235.907 402.212)" gradientUnits="userSpaceOnUse"><stop stop-color="#fff"/><stop offset=".555" stop-color="#bddbf1" stop-opacity=".25"/><stop offset="1" stop-color="#5686f5" stop-opacity="0"/></radialGradient><radialGradient id="g" cx="0" cy="0" r="1" gradientTransform="matrix(9.15687 11.6869 -5.2526 4.81463 224.278 423.802)" gradientUnits="userSpaceOnUse"><stop stop-color="#fff"/><stop offset=".674" stop-color="#bddbf1" stop-opacity=".25"/><stop offset="1" stop-color="#5686f5" stop-opacity="0"/></radialGradient><radialGradient id="i" cx="0" cy="0" r="1" gradientTransform="matrix(24.1742 -21.1818 13.4389 19.7206 320.044 430.958)" gradientUnits="userSpaceOnUse"><stop stop-color="#3cc7f5"/><stop offset="0" stop-color="#3cc7f5"/><stop offset="1" stop-color="#004dff"/></radialGradient><radialGradient id="j" cx="0" cy="0" r="1" gradientTransform="matrix(24.1741 -21.1821 13.4389 19.721 319.861 430.86)" gradientUnits="userSpaceOnUse"><stop stop-color="#3cc7f5"/><stop offset="0" stop-color="#3cc7f5"/><stop offset="1" stop-color="#004dff"/></radialGradient><radialGradient id="k" cx="0" cy="0" r="1" gradientTransform="matrix(14.4541 24.2971 -6.35755 4.62874 324.531 413.208)" gradientUnits="userSpaceOnUse"><stop stop-color="#fff"/><stop offset=".555" stop-color="#bddbf1" stop-opacity=".25"/><stop offset="1" stop-color="#5686f5" stop-opacity="0"/></radialGradient><radialGradient id="l" cx="0" cy="0" r="1" gradientTransform="matrix(9.15687 12.2524 -5.2526 5.04759 312.902 435.844)" gradientUnits="userSpaceOnUse"><stop stop-color="#fff"/><stop offset=".674" stop-color="#bddbf1" stop-opacity=".25"/><stop offset="1" stop-color="#5686f5" stop-opacity="0"/></radialGradient><radialGradient id="n" cx="0" cy="0" r="1" gradientTransform="matrix(31.4264 -26.0704 17.4705 24.2721 274.535 497.038)" gradientUnits="userSpaceOnUse"><stop stop-color="#3cc7f5"/><stop offset="0" stop-color="#3cc7f5"/><stop offset="1" stop-color="#004dff"/></radialGradient><radialGradient id="o" cx="0" cy="0" r="1" gradientTransform="matrix(31.4264 -26.0703 17.4705 24.272 274.296 496.918)" gradientUnits="userSpaceOnUse"><stop stop-color="#3cc7f5"/><stop offset="0" stop-color="#3cc7f5"/><stop offset="1" stop-color="#004dff"/></radialGradient><radialGradient id="p" cx="0" cy="0" r="1" gradientTransform="matrix(18.7904 29.9042 -8.26481 5.69691 280.367 475.192)" gradientUnits="userSpaceOnUse"><stop stop-color="#fff"/><stop offset=".555" stop-color="#bddbf1" stop-opacity=".25"/><stop offset="1" stop-color="#5686f5" stop-opacity="0"/></radialGradient><radialGradient id="q" cx="0" cy="0" r="1" gradientTransform="matrix(11.9039 15.0799 -6.82838 6.21242 265.249 503.052)" gradientUnits="userSpaceOnUse"><stop stop-color="#fff"/><stop offset=".674" stop-color="#bddbf1" stop-opacity=".25"/><stop offset="1" stop-color="#5686f5" stop-opacity="0"/></radialGradient><filter id="a" width="106.33" height="210" x="109.037" y="302" color-interpolation-filters="sRGB" filterUnits="userSpaceOnUse"><feFlood flood-opacity="0" result="BackgroundImageFix"/><feBlend in="SourceGraphic" in2="BackgroundImageFix" result="shape"/><feGaussianBlur result="effect1_foregroundBlur_30_694" stdDeviation="2.5"/></filter><filter id="c" width="52.443" height="45.409" x="205.107" y="399.363" color-interpolation-filters="sRGB" filterUnits="userSpaceOnUse"><feFlood flood-opacity="0" result="BackgroundImageFix"/><feBlend in="SourceGraphic" in2="BackgroundImageFix" result="shape"/><feGaussianBlur result="effect1_foregroundBlur_30_694" stdDeviation="4"/></filter><filter id="h" width="52.443" height="46.832" x="293.731" y="410.608" color-interpolation-filters="sRGB" filterUnits="userSpaceOnUse"><feFlood flood-opacity="0" result="BackgroundImageFix"/><feBlend in="SourceGraphic" in2="BackgroundImageFix" result="shape"/><feGaussianBlur result="effect1_foregroundBlur_30_694" stdDeviation="4"/></filter><filter id="m" width="63.376" height="53.948" x="242.727" y="473.837" color-interpolation-filters="sRGB" filterUnits="userSpaceOnUse"><feFlood flood-opacity="0" result="BackgroundImageFix"/><feBlend in="SourceGraphic" in2="BackgroundImageFix" result="shape"/><feGaussianBlur result="effect1_foregroundBlur_30_694" stdDeviation="4"/></filter><filter id="r" width="246.241" height="240" x="177.759" y="0" color-interpolation-filters="sRGB" filterUnits="userSpaceOnUse"><feFlood flood-opacity="0" result="BackgroundImageFix"/><feColorMatrix in="SourceAlpha" result="hardAlpha" values="0 0 0 0 0 0 0 0 0 0 0 0 0 0 0 0 0 0 127 0"/><feOffset dy="4"/><feGaussianBlur stdDeviation="2"/><feComposite in2="hardAlpha" operator="out"/><feColorMatrix values="0 0 0 0 0 0 0 0 0 0 0 0 0 0 0 0 0 0 0.25 0"/><feBlend in2="BackgroundImageFix" result="effect1_dropShadow_30_694"/><feBlend in="SourceGraphic" in2="effect1_dropShadow_30_694" result="shape"/><feColorMatrix in="SourceAlpha" result="hardAlpha" values="0 0 0 0 0 0 0 0 0 0 0 0 0 0 0 0 0 0 127 0"/><feOffset dx="-25" dy="15"/><feGaussianBlur stdDeviation="12.5"/><feComposite in2="hardAlpha" k2="-1" k3="1" operator="arithmetic"/><feColorMatrix values="0 0 0 0 0.607843 0 0 0 0 0.529412 0 0 0 0 0.921569 0 0 0 1 0"/><feBlend in2="shape" result="effect2_innerShadow_30_694"/></filter><filter id="t" width="420" height="348.647" x="0" y="67" color-interpolation-filters="sRGB" filterUnits="userSpaceOnUse"><feFlood flood-opacity="0" result="BackgroundImageFix"/><feBlend in="SourceGraphic" in2="BackgroundImageFix" result="shape"/><feColorMatrix in="SourceAlpha" result="hardAlpha" values="0 0 0 0 0 0 0 0 0 0 0 0 0 0 0 0 0 0 127 0"/><feOffset dy="48.647"/><feGaussianBlur stdDeviation="30"/><feComposite in2="hardAlpha" k2="-1" k3="1" operator="arithmetic"/><feColorMatrix values="0 0 0 0 1 0 0 0 0 1 0 0 0 0 1 0 0 0 1 0"/><feBlend in2="shape" result="effect1_innerShadow_30_694"/></filter><linearGradient id="b" x1="162.202" x2="162.202" y1="307" y2="507" gradientUnits="userSpaceOnUse"><stop stop-color="#ffe176"/><stop offset=".479" stop-color="#fec255"/><stop offset="1" stop-color="#fea031"/></linearGradient><linearGradient id="s" x1="215.564" x2="378.013" y1="0" y2="257.137" gradientUnits="userSpaceOnUse"><stop stop-color="#9b87eb"/><stop offset=".659" stop-color="#3010ac"/></linearGradient><linearGradient id="u" x1="29.423" x2="419.459" y1="67" y2="367.861" gradientUnits="userSpaceOnUse"><stop stop-color="#fff"/><stop offset="1" stop-color="#c1c1c1"/></linearGradient></defs></svg>