<svg xmlns="http://www.w3.org/2000/svg" fill="none" viewBox="0 0 585 497"><g filter="url(#a)"><path fill="url(#b)" fill-rule="evenodd" d="M150.38 282.03c65.77-21.92 131.42-21.92 197.19 0 68.87 22.96 137.86 22.96 206.73 0a7.55 7.55 0 1 0-4.77-14.33q-47.59 15.86-95.1 16.42a10.58 10.58 0 1 0-20.38-.46q-40.83-2.34-81.7-15.96c-68.88-22.96-137.88-22.96-206.75 0a7.56 7.56 0 0 0 4.78 14.33m50.66 2.7c5.41 0 9.87 4.06 10.5 9.3q70.43-8.48 140.8 14.97c44.26 14.75 88.45 19.57 132.67 14.47q-.08-.64-.08-1.3a10.58 10.58 0 0 1 21-1.85q21.79-4.05 43.6-11.32a7.56 7.56 0 0 1 4.77 14.33c-68.87 22.96-137.86 22.96-206.74 0-65.77-21.92-131.4-21.92-197.18 0A7.56 7.56 0 0 1 145.6 309q22.52-7.5 45.04-11.74a11 11 0 0 1-.18-1.96c0-5.84 4.74-10.57 10.58-10.57m145.63 60.59q.92-2.01.93-4.35a10.58 10.58 0 0 0-21.1-1.08c-58.89-13.91-117.84-11.06-176.7 8.56a7.56 7.56 0 0 0 4.78 14.33q48.9-16.3 97.76-16.44a10.5 10.5 0 0 0-1.1 4.7 10.58 10.58 0 1 0 20.31-4.13q40.09 2.5 80.21 15.87c68.87 22.96 137.87 22.96 206.74 0a7.56 7.56 0 0 0-4.78-14.33c-65.77 21.92-131.41 21.92-197.18 0a361 361 0 0 0-9.87-3.13" clip-rule="evenodd"/></g><g filter="url(#c)"><path fill="url(#d)" fill-rule="evenodd" d="M332.5 220.6c7.95 6.22 13.5 13.2 16.04 20.64 68.54 22.62 137.2 22.51 205.74-.34a7.56 7.56 0 0 0-4.78-14.33c-65.77 21.92-131.41 21.92-197.18 0a353 353 0 0 0-19.83-5.97" clip-rule="evenodd"/></g><foreignObject width="584.15" height="521.274" x="0" y="-25.182"><div xmlns="http://www.w3.org/1999/xhtml" style="backdrop-filter:blur(12.59px);clip-path:url(#e);height:100%;width:100%"/></foreignObject><g data-figma-bg-blur-radius="25.182" filter="url(#f)"><mask id="h" fill="#fff"><path fill-rule="evenodd" d="M397.88 90.24A131.1 131.1 0 0 0 273.2 0c-72.4 0-131.1 58.55-131.1 130.78s58.7 130.78 131.1 130.78h147.7c48.26 0 87.39-39.03 87.39-87.19S469.17 87.2 420.9 87.2a88 88 0 0 0-23.02 3.05" clip-rule="evenodd"/></mask><path fill="url(#g)" fill-rule="evenodd" d="M397.88 90.24A131.1 131.1 0 0 0 273.2 0c-72.4 0-131.1 58.55-131.1 130.78s58.7 130.78 131.1 130.78h147.7c48.26 0 87.39-39.03 87.39-87.19S469.17 87.2 420.9 87.2a88 88 0 0 0-23.02 3.05" clip-rule="evenodd"/><path fill="#f6dcc5" fill-opacity=".5" d="m397.88 90.24-.83.27.26.8.8-.23zm22.9 171.32v-.87zM398.7 89.97A132 132 0 0 0 273.2-.87V.87c57.83 0 106.85 37.6 123.84 89.65zM273.2-.87c-72.88 0-131.97 58.94-131.97 131.65H143C143 59.04 201.3.88 273.22.88zM141.24 130.78c0 72.71 59.09 131.65 131.97 131.65v-1.74c-71.92 0-130.22-58.17-130.22-129.91zm131.97 131.65h147.57v-1.74H273.2zm147.7-1.74h-.13v1.74h.12zm86.52-86.32c0 47.67-38.74 86.32-86.53 86.32v1.74c48.75 0 88.27-39.42 88.27-88.06zM420.9 88.06c47.79 0 86.53 38.64 86.53 86.31h1.74c0-48.63-39.52-88.06-88.27-88.06zm-22.8 3.02a87 87 0 0 1 22.8-3.02V86.3a89 89 0 0 0-23.25 3.1z" mask="url(#h)"/></g><defs><linearGradient id="b" x1="79.13" x2="890.765" y1="200.75" y2="209.21" gradientUnits="userSpaceOnUse"><stop stop-color="#f3d9c1"/><stop offset="1" stop-color="#cca887"/></linearGradient><linearGradient id="d" x1="317.87" x2="725.801" y1="239.312" y2="250.509" gradientUnits="userSpaceOnUse"><stop stop-color="#f3d9c1"/><stop offset="1" stop-color="#cca887"/></linearGradient><linearGradient id="g" x1="175.187" x2="496.68" y1=".839" y2="288.588" gradientUnits="userSpaceOnUse"><stop stop-color="#f2d8c0"/><stop offset="1" stop-color="#cdab8d"/><stop offset="1" stop-color="#c8a483"/></linearGradient><filter id="a" width="429.947" height="137.579" x="137.078" y="247.122" color-interpolation-filters="sRGB" filterUnits="userSpaceOnUse"><feFlood flood-opacity="0" result="BackgroundImageFix"/><feColorMatrix in="SourceAlpha" result="hardAlpha" values="0 0 0 0 0 0 0 0 0 0 0 0 0 0 0 0 0 0 127 0"/><feOffset dy="1.343"/><feGaussianBlur stdDeviation="1.679"/><feComposite in2="hardAlpha" operator="out"/><feColorMatrix values="0 0 0 0 0.933333 0 0 0 0 0.827451 0 0 0 0 0.729412 0 0 0 1 0"/><feBlend in2="BackgroundImageFix" result="effect1_dropShadow_40_905"/><feBlend in="SourceGraphic" in2="effect1_dropShadow_40_905" result="shape"/><feColorMatrix in="SourceAlpha" result="hardAlpha" values="0 0 0 0 0 0 0 0 0 0 0 0 0 0 0 0 0 0 127 0"/><feOffset dx="-3.022" dy="-3.358"/><feGaussianBlur stdDeviation="4.533"/><feComposite in2="hardAlpha" k2="-1" k3="1" operator="arithmetic"/><feColorMatrix values="0 0 0 0 0.933333 0 0 0 0 0.827451 0 0 0 0 0.733333 0 0 0 1 0"/><feBlend in2="shape" result="effect2_innerShadow_40_905"/><feGaussianBlur result="effect3_foregroundBlur_40_905" stdDeviation=".839"/></filter><filter id="c" width="232.329" height="42.898" x="329.805" y="217.91" color-interpolation-filters="sRGB" filterUnits="userSpaceOnUse"><feFlood flood-opacity="0" result="BackgroundImageFix"/><feColorMatrix in="SourceAlpha" result="hardAlpha" values="0 0 0 0 0 0 0 0 0 0 0 0 0 0 0 0 0 0 127 0"/><feOffset dy="1.343"/><feGaussianBlur stdDeviation=".672"/><feComposite in2="hardAlpha" operator="out"/><feColorMatrix values="0 0 0 0 0 0 0 0 0 0 0 0 0 0 0 0 0 0 0.25 0"/><feBlend in2="BackgroundImageFix" result="effect1_dropShadow_40_905"/><feBlend in="SourceGraphic" in2="effect1_dropShadow_40_905" result="shape"/><feGaussianBlur result="effect2_foregroundBlur_40_905" stdDeviation="1.343"/></filter><filter id="f" width="584.15" height="521.274" x="0" y="-25.182" color-interpolation-filters="sRGB" filterUnits="userSpaceOnUse"><feFlood flood-opacity="0" result="BackgroundImageFix"/><feColorMatrix in="SourceAlpha" result="hardAlpha" values="0 0 0 0 0 0 0 0 0 0 0 0 0 0 0 0 0 0 127 0"/><feOffset dx="-33.131" dy="125.549"/><feGaussianBlur stdDeviation="54.492"/><feComposite in2="hardAlpha" operator="out"/><feColorMatrix values="0 0 0 0 0.666667 0 0 0 0 0.578125 0 0 0 0 0.5 0 0 0 0.25 0"/><feBlend in2="BackgroundImageFix" result="effect1_dropShadow_40_905"/><feBlend in="SourceGraphic" in2="effect1_dropShadow_40_905" result="shape"/><feColorMatrix in="SourceAlpha" result="hardAlpha" values="0 0 0 0 0 0 0 0 0 0 0 0 0 0 0 0 0 0 127 0"/><feOffset dy="10.462"/><feGaussianBlur stdDeviation="14.386"/><feComposite in2="hardAlpha" k2="-1" k3="1" operator="arithmetic"/><feColorMatrix values="0 0 0 0 0.956863 0 0 0 0 0.854902 0 0 0 0 0.760784 0 0 0 1 0"/><feBlend in2="shape" result="effect2_innerShadow_40_905"/></filter><clipPath id="e" transform="translate(0 25.182)"><path fill-rule="evenodd" d="M397.88 90.24A131.1 131.1 0 0 0 273.2 0c-72.4 0-131.1 58.55-131.1 130.78s58.7 130.78 131.1 130.78h147.7c48.26 0 87.39-39.03 87.39-87.19S469.17 87.2 420.9 87.2a88 88 0 0 0-23.02 3.05" clip-rule="evenodd"/></clipPath></defs></svg>